<svg xmlns="http://www.w3.org/2000/svg" xmlns:xlink="http://www.w3.org/1999/xlink" viewBox="0 0 121.35 118"><defs><style>.cls-1{fill:none;stroke-miterlimit:10;stroke:url(#Degradado_sin_nombre_90);}</style><linearGradient id="Degradado_sin_nombre_90" y1="59" x2="121.35" y2="59" gradientUnits="userSpaceOnUse"><stop offset="0" stop-color="#006d94"/><stop offset="0.06" stop-color="#087496" stop-opacity="0.99"/><stop offset="0.49" stop-color="#3ea5a4" stop-opacity="0.94"/><stop offset="0.82" stop-color="#5fc4ad" stop-opacity="0.91"/><stop offset="1" stop-color="#6ccfb0" stop-opacity="0.9"/></linearGradient></defs><title>careers-icon--4</title><g id="Capa_2" data-name="Capa 2"><g id="Capa_1-2" data-name="Capa 1"><path class="cls-1" d="M60.74,63.73l12-5.36L92.79,90.32l-10.24,13.4-14.43,3.56-7.38-3.66,3.1-3.33,4.83-2.83,5-2.83,1.83-5.5L67,87.95l-6.26,3m12-32.57,3.46-3.8,4-3.8,7.44,2.42L81.9,58.37H72.73L92,76.81l7.82-11.65-12.23-12-2.49-6.72-7.66-4.14-5.32,6Zm4.81-5.1v5.1l5.62,3.27,4.39-2.08L85.28,55.3l-3.06-3.87M60.74,117.52l13.42-4.4,8.39-9.42m-8.39,9.42,35-15.7,11.72-28.26-2.93-23.65L99.83,16.22,78.56,5.13,60.74,2.2m50.36,32.3,6-4.46V11.51l-8.79-11-8.45.84-9,10.15M75.5,89.12l-7.31,4.46-4.35,6.7M60.61,63.73l-12-5.36L28.56,90.32l10.24,13.4,14.43,3.56,7.38-3.66-3.1-3.33-4.83-2.83-5-2.83-1.83-5.5,8.5-1.17,6.26,3M49.21,48.33l-5.32-6-7.66,4.14-2.49,6.72-12.23,12,7.82,11.65L48.62,58.37H39.45l-5.71-5.19,7.44-2.42,4,3.8,3.46,3.8Zm-10.08,3.1L36.07,55.3,33.8,59.57l4.39,2.08,5.62-3.27v-5.1m-5,50.44,8.39,9.42,13.42,4.4m0-115.33L42.79,5.13,21.52,16.22,3.44,45.52.51,69.18,12.23,97.43l35,15.7M30.56,11.51l-9-10.15L13.07.52l-8.79,11V30l6,4.46m47.27,65.78-4.35-6.7-7.31-4.46"/></g></g></svg>