<svg xmlns="http://www.w3.org/2000/svg" xmlns:xlink="http://www.w3.org/1999/xlink" viewBox="0 0 159.83 159.94"><defs><style>.cls-1{fill:none;stroke-miterlimit:10;stroke:url(#Degradado_sin_nombre_90);}</style><linearGradient id="Degradado_sin_nombre_90" y1="79.97" x2="159.83" y2="79.97" gradientUnits="userSpaceOnUse"><stop offset="0" stop-color="#006d94"/><stop offset="0.06" stop-color="#087496" stop-opacity="0.99"/><stop offset="0.49" stop-color="#3ea5a4" stop-opacity="0.94"/><stop offset="0.82" stop-color="#5fc4ad" stop-opacity="0.91"/><stop offset="1" stop-color="#6ccfb0" stop-opacity="0.9"/></linearGradient></defs><title>careers-icon-6</title><g id="Capa_2" data-name="Capa 2"><g id="Capa_1-2" data-name="Capa 1"><path class="cls-1" d="M65.64,47.05l-5.7,24.6-1.2,4.8L62,75l3.6,6.6,3-16.5-1.2-8.64L80.34,51m-20.1,17.4-9.3-25.5,1.85-25.19,13.75,2.69L80.34,39.7l-9.6,1.35-5.1,6m-8.1,44.1-19.2-2.1L5,59.65.54,30.55l44.1-30,21.6,7.5,14.1-1.5m-14.1,1.5-14.4,9.6-4.2,7.8,3.3,17.4-12.6,46.2M.54,30.55l37.8-10.8L44.64.55m3,24.9-9.3-5.7L5,59.65m46.8-42,28.5-11.1-14.7,40.5-6.76-6.49H55.26l-1.47,3.1L58.88,51l2.72-3.9m-.51.73-6.3-4.12,1.56-1.11,5.26,4.5h4m0,0,1.8,9.36-8.7,20V98.28l6.9-16.72,6.43-8.89,8.27-2.75m0-7.74-11.7,2.87L62,75m3.6,6.6,1.4,7.5,4.15-5.45,9.15-3.14M61.68,91.15,67,89.05V94l4.7-2.84,8.6-1.08M67,94l.63,5.67,4.51-1.75,8.14-.65m-12.65,2.4v3.93l6-.8,6.64-.36M67.67,103.6l.73,3.2,5.6-.51,6.33-.07m-11.93.58.44,2.91m0,0,.36,2.91,11.13.58m-11.13-.58v3.56m0,0,.35,2.33H80.32m-10.78,0,.31,2.69m0,0,.51,2.76h10m-10,0v1.75m0,0,.36,2.47h9.6m0,3.34L71,131l-.29-2.84-4.22,1.67,5.89,24.94.51,3.05,5.24,1.6h2.18M71,131v2.91m0,0,.29,2,9,.36m-9-.36v3.78l9,.29m-9-.29.36,1.89m0,0v1.89l8.65.65m-8.65-.65.73,3.42,7.93.87m-7.93-.87v2.69l7.93.87m-7.93-.87v3.05l7.93,1.16m-7.93-1.16v2.18l1.09.44,6.84.95M99.59,68.35l9.3-25.5-2.1-25.19-13.5,2.69L79.49,39.7l9.6,1.35,5.1,6,5.7,24.6,1.2,4.8L97.79,75l-3.6,6.6-3-16.5,1.2-8.64L79.49,51m22.8,40.2,19.2-2.1,33.3-29.4,4.5-29.1-44.1-30-21.6,7.5-14.1-1.5m42,82.5-12.6-46.2,3.3-17.4-4.2-7.8-14.4-9.6m21.6-7.5,6.3,19.2,37.8,10.8m-4.5,29.1-33.3-39.9-9.3,5.7m-5.2-7.8M79.49,6.55m0,63.37,8.27,2.75,6.43,8.89,6.9,16.72V76.45l-8.7-20,1.8-9.36M97.79,75l-6.6-9.9-11.7-2.87m0,18.28,9.15,3.14,4.15,5.45,1.4-7.5m-14.7,8.52,8.6,1.08L92.8,94V89.05l5.36,2.1M79.51,97.27l8.14.65,4.51,1.75L92.8,94m-13.28,8.44,6.64.36,6,.8V99.67m-12.65,6.54,6.33.07,5.6.51.73-3.2M91,109.71l.44-2.91m-11.93,6.4,11.13-.58.36-2.91m-.36,6.47v-3.56M79.51,118.5H90.29l.35-2.33m-.65,5,.31-2.69M79.51,124h10l.51-2.76m-.51,4.51V124m-10,4.22h9.6l.36-2.47m-10,33.74h2.18l5.24-1.6.51-3.05,5.89-24.94-4.22-1.67L88.82,131l-9.31.51m9.31,2.4V131m-9.31,5.24,9-.36.29-2m-9.31,6,9-.29v-3.78m-.36,5.67.36-1.89m-9,4.44,8.65-.65v-1.89m-8.65,6.18,7.93-.87.73-3.42m-8.65,7,7.93-.87v-2.69m-7.93,6.91,7.93-1.16v-3.05m-7.93,6.62,6.84-.95,1.09-.44v-2.18M97.83,47.05l2.72,3.9,5.09-7.29-1.47-3.1h-3.63l-6.76,6.49m0,0h4l5.26-4.5,1.56,1.11-6.3,4.12"/></g></g></svg>