<svg xmlns="http://www.w3.org/2000/svg" xmlns:xlink="http://www.w3.org/1999/xlink" viewBox="0 0 168.95 157.16"><defs><style>.cls-1{fill:none;stroke-miterlimit:10;stroke:url(#Degradado_sin_nombre_90);}</style><linearGradient id="Degradado_sin_nombre_90" y1="78.58" x2="168.95" y2="78.58" gradientUnits="userSpaceOnUse"><stop offset="0" stop-color="#006d94"/><stop offset="0.06" stop-color="#087496" stop-opacity="0.99"/><stop offset="0.49" stop-color="#3ea5a4" stop-opacity="0.94"/><stop offset="0.82" stop-color="#5fc4ad" stop-opacity="0.91"/><stop offset="1" stop-color="#6ccfb0" stop-opacity="0.9"/></linearGradient></defs><title>careers-icon-3</title><g id="Capa_2" data-name="Capa 2"><g id="Capa_1-2" data-name="Capa 1"><path class="cls-1" d="M89.47,143.39l.42-24L70.13,92.1,81.06,62.25,67.74,34.92l18.82,2.94,27.18,16.06,24.92,58.78-24.92,36.22-30.58,7.5Zm23.27,3.53-1-93L81.06,62.25Zm55.19-41.16L113.74,54.92l24.92,57.78Zm0,0L155.24,90l-41.5-35,40,54.21M155.24,90l5.36-6.58L113.74,53.92m20.35,5.31,2.72-3.1-12.59-9.87L87.74,38.92l46.35,20.31,12.41,8.46L142.14,72M124.22,46.26l2.26-3.67L86.74,37.92m27.53-3.42-16.61-6-30.9,6h47.51L113,41M100.25,21.44l-18,3.38-4.79-7.61v9.31l-10.64,8,33.48-13.06-2.58,7M70.13,92.1,53.72,69.38,23.55,95.46,17.63,112.7M61.05,99.27,53.72,69.38,40.47,68,11.14,92.51l12.41,3,13,10.3m-7.61,6.94L23.55,95.46M8.88,101.68l14.66-6.22L49.21,99l4.51-29.61L63,57.26l-.56-19.39-8.18,5.58L63,57.26,47.52,59.51l-7,8.46-2.54-9L54.29,43.44,32.85,51.05m31-33.84L52.88,24l9.59,13.88,5.92-13.6m12.68,38L62.46,37.86l4.3-3.36,1.62-10.24L59.93,11l-7,13,1.69,10.76-.28,8.69L42.16,42.06l-9.31,9-2,6.77,7,1.13L11.14,92.51l-2.26,9.18,8.74,11H28.91l7.61-6.94L49.21,99l11.84.28,9.08-7.18L63,57.26l18,5,8.83,57.18,22.85,28.5-23.27-4.53M37.93,58.95l9.59.56,6.77-16.07L30.88,57.82M42.16,42.06,6.06,8.75h6.2l42,34.69.28-8.69L11.14,4.24,2.68,1.42l9.59,7.33L11.14,4.24M6.06,8.75,2.68,1.42"/></g></g></svg>