<svg xmlns="http://www.w3.org/2000/svg" xmlns:xlink="http://www.w3.org/1999/xlink" viewBox="0 0 119.81 104.85"><defs><style>.cls-1{fill:none;stroke-miterlimit:10;stroke:url(#Degradado_sin_nombre_90);}</style><linearGradient id="Degradado_sin_nombre_90" y1="52.42" x2="119.81" y2="52.42" gradientUnits="userSpaceOnUse"><stop offset="0" stop-color="#006d94"/><stop offset="0.06" stop-color="#087496" stop-opacity="0.99"/><stop offset="0.49" stop-color="#3ea5a4" stop-opacity="0.94"/><stop offset="0.82" stop-color="#5fc4ad" stop-opacity="0.91"/><stop offset="1" stop-color="#6ccfb0" stop-opacity="0.9"/></linearGradient></defs><title>careers-icon-2</title><g id="Capa_2" data-name="Capa 2"><g id="Capa_1-2" data-name="Capa 1"><path class="cls-1" d="M102,17.67l16.79,27.55-1.76,23L96.82,82.35,59.89,104.42M89.35,30l8-2.11L109.83.42,72.27,54.64,90.35,78.35,59.89,90.79l36.93-8.44L112.18,47.6l6.63-2.38L97.39,27.88,112.18,47.6,117,68.22M112.18,47.6,93.45,40.89l-14.39,4,3.61,11.34-8.8-3.85m8.8,3.85L93.45,40.89M59.89,5.33,90.24,13.2,59.89,25.8V33L109.83.42M79.06,44.84,59.89,55.44l5.46,9.3L59.89,84.48V72.72L72.27,54.64,59.89,90.79M90.35,78.35l6.48,4m-79-64.68L1,45.23l1.76,23L23,82.35l36.93,22.07M2.76,68.22,7.63,47.6,22.42,27.88,1,45.23,7.63,47.6,23,82.35l36.93,8.44L29.46,78.35,47.54,54.64,10,.42,22.42,27.88l8,2.11M45.93,52.33l-8.8,3.85,3.61-11.34-14.39-4L7.63,47.6m29.5,8.58L26.36,40.89M10,.42,59.92,33V25.8L29.57,13.2,59.92,5.33m0,85.47L47.54,54.64,59.92,72.72V84.48L54.46,64.74l5.46-9.3L40.75,44.84M29.46,78.35l-6.48,4"/></g></g></svg>