<svg xmlns="http://www.w3.org/2000/svg" xmlns:xlink="http://www.w3.org/1999/xlink" viewBox="0 0 103.12 150.13"><defs><style>.cls-1{fill:none;stroke-miterlimit:10;stroke:url(#Degradado_sin_nombre_90);}</style><linearGradient id="Degradado_sin_nombre_90" y1="75.06" x2="103.12" y2="75.06" gradientUnits="userSpaceOnUse"><stop offset="0" stop-color="#006d94"/><stop offset="0.06" stop-color="#087496" stop-opacity="0.99"/><stop offset="0.49" stop-color="#3ea5a4" stop-opacity="0.94"/><stop offset="0.82" stop-color="#5fc4ad" stop-opacity="0.91"/><stop offset="1" stop-color="#6ccfb0" stop-opacity="0.9"/></linearGradient></defs><title>careers-icon-5</title><g id="Capa_2" data-name="Capa 2"><g id="Capa_1-2" data-name="Capa 1"><path class="cls-1" d="M74.9,71.44l-.78,4.7-2.35.68-3.58-3.36m-6.57,7.21,19,2.45,7.94-6.3m-4.7-2.47L80.6,83.11m-3.55,20.33L69.58,96,59.2,97.86m-7.65,17.82,6-1.66,6.75,35,5.59-15.87L77.61,118l-4.12-9m.82-14,16-12M61.62,80.66,58.1,76.81l1.76-6.07L67.5,67.1,64.29,54.36,51.57,49.07,38.83,54.38,35.62,67.12l7.64,3.64L45,76.83,41.5,80.68m26-13.57,3.34-14.26L51.53,42.08l8-2.28,10.08.31L82.1,23.84l9.23-4.9,3.17,5.19,2,13.27L94.79,55.57l1.73,5.77-2.31,8.94,3.7,28.36L83,114.85,78.5,134.18,64.29,149.06l-4.91-25.93-7.85,4.54,11-6.35,9.81-10.38,4.76-7.5-2.74-8.36L61.62,80.66l3.75-8.36,10.38-3.46,4.61,3.75,5.77.87,5.53,2.35,1.12,3.13-2.46,4.18-1.79-6.3-4.7-2.47L79.71,74,74.9,71.44l-6.71,2-6.44,6.89M69.6,40.11m15,10.76L85.85,61l8.36,9.24m.58-14.71L87.88,44.83m-26,44.27,1.73,2.14-.71,3.25-2.32,1.82-9.1,9.91,6,3.44,3.64,1.25,4.25-.23,9.33-6.34-15.66,2.17-3.49-4.74m4.3-4.68-2.69-.15-1.5,1.62.64,2.4m4.28-4.66L56,93.62l-4.49,1.46-4.45-1.44-4.6,2.69m9,9.9M92.57,21l.81-4.8,6.15-7.66L98.22,6.29,99.94.84M73.49,109.05l13.21-2.22L92.57,89.1l-2.24-6M66.41,75.91l2.65,3.66,4.67.39,3.71-2,2.33-3.59M58.09,45.74l1.43,7.11L56,63l3.83,7.79m31.74-50-32.08,19,35-15.67-.29-4.74,6-6.86,2.33-7.06L99.94.84,95.6,5.58l.1,3.63-4.37,6v3.68l2.26,15.25L84.64,50.88l-13.8,2,4.66,6.28L85.85,61M28.22,71.45l.78,4.7,2.35.68,3.58-3.36M14.58,76.83l7.94,6.3,19-2.45M19.28,74.36l3.24,8.77M30.83,111,37.51,114h8.07l3.72-3.72,2.28-.64,2.23.62L57.53,114h8.07l6.68-3.07M43.92,97.88,33.54,96l-7.47,7.42m25.5,12.23-6-1.66-16-5-4.12,9,7.73,15.16,5.59,15.87m-10-54-16-12m28-2.78-5.83-6.88-6.71-2L23.41,74l-4.14.34-4.7,2.47-1.79,6.3-2.46-4.18,1.12-3.13L17,73.47l5.77-.87,4.61-3.75,10.38,3.46,3.75,8.36L28.81,95.1l-2.74,8.36,4.76,7.5,9.81,10.38,11,6.35-7.85-4.54-4.91,25.93L24.62,134.2l-4.53-19.33L5.21,98.65l3.7-28.36L6.6,61.35l1.73-5.77L6.6,37.41l2-13.27L11.79,19,21,23.86,33.52,40.13l10.08-.31,8,2.28L32.28,52.86l3.34,14.26m-2.1-27M8.91,70.29l8.36-9.24,1.21-10.16M8.33,55.58l6.91-10.74m32.28,56.95L44,106.53l-16.27-2.19,9.94,6.35,4.25.23,3.64-1.25,6-3.44-9.1-9.91L40.17,94.5l-.71-3.25,1.73-2.14M46.77,101l.64-2.4L45.91,97l-2.69.15m31.09,3.61-26.79,1.07,2.69-1.05,1.34.6,0,0,1.33-.6,2.69,1.05m-26.79-1,22.79,5.5M3.18.86,4.9,6.3,3.58,8.52l6.15,7.66.81,4.8m2.24,62.14-2.24,6,5.87,17.73,13.21,2.22M23.76,74.34l1.93,3.61,3.71,2,4.67-.39,2.65-3.66m6.55-5.16L47.09,63,43.6,52.86,45,45.76M47.09,63l4.46,3.76L56,63m-12.91-23M11.52,20.79m5.75,40.27,10.36-1.91,4.66-6.28-13.8-2L9.53,34.21,11.79,19V15.28l-4.37-6,.1-3.63L3.18.86.54,5.5l2.33,7.06,6,6.86-.29,4.74M37.51,114l2.9,1.56,6.17.83,5-1.54,5,1.52,6.17-.83,2.9-1.56M51.54,95.08l0,6.24"/></g></g></svg>