<?xml version="1.0" encoding="utf-8"?>
<!-- Generator: Adobe Illustrator 21.1.0, SVG Export Plug-In . SVG Version: 6.00 Build 0)  -->
<svg version="1.1" id="Capa_1" xmlns="http://www.w3.org/2000/svg" xmlns:xlink="http://www.w3.org/1999/xlink" x="0px" y="0px"
	 viewBox="0 0 198.3 198.3" style="enable-background:new 0 0 198.3 198.3;" xml:space="preserve">
<style type="text/css">
	.Estilo_x0020_gr√_x00A1_fico_x0020_2{fill:url(#SVGID_1_);}
	.Estilo_x0020_gr√_x00A1_fico{fill:url(#SVGID_2_);}
	.st0{fill:#FFFFFF;}
	.st1{fill:#FFFFFF;stroke:url(#SVGID_3_);stroke-miterlimit:10;}
	.st2{fill:none;stroke:url(#SVGID_4_);stroke-miterlimit:10;}
	.st3{fill:none;stroke:url(#SVGID_5_);stroke-miterlimit:10;}
	.st4{stroke:url(#SVGID_6_);stroke-miterlimit:10;}
	.st5{fill:none;stroke:url(#SVGID_7_);stroke-miterlimit:10;}
	.st6{stroke:#FFFFFF;stroke-miterlimit:10;}
	.st7{fill:none;stroke:#FFFFFF;stroke-miterlimit:10;}
	.st8{fill:url(#SVGID_8_);stroke:#FFFFFF;stroke-miterlimit:10;}
	.st9{fill:url(#SVGID_9_);}
	.st10{fill:url(#SVGID_10_);}
	.st11{fill:url(#SVGID_11_);}
	.st12{fill:url(#SVGID_12_);}
	.st13{fill:url(#SVGID_13_);}
	.st14{fill:url(#SVGID_14_);}
	.st15{fill:url(#SVGID_15_);stroke:#FFFFFF;stroke-miterlimit:10;}
	.st16{fill:url(#SVGID_16_);}
	.st17{fill:url(#SVGID_17_);}
	.st18{fill:url(#SVGID_18_);}
	.st19{fill:url(#SVGID_19_);}
	.st20{fill:url(#SVGID_20_);}
	.st21{fill:url(#SVGID_21_);}
	.st22{fill:url(#SVGID_22_);}
	.st23{fill:url(#SVGID_23_);}
	.st24{fill:url(#SVGID_24_);}
	.st25{fill:#FFFFFF;stroke:#000000;stroke-miterlimit:10;}
	.st26{fill:none;stroke:#000000;stroke-miterlimit:10;}
</style>
<linearGradient id="SVGID_1_" gradientUnits="userSpaceOnUse" x1="-1153.1178" y1="-200.8091" x2="-1152.6075" y2="-199.949">
	<stop  offset="0" style="stop-color:#006D94"/>
	<stop  offset="0.1334" style="stop-color:#127D99;stop-opacity:0.9867"/>
	<stop  offset="0.5286" style="stop-color:#43A9A5;stop-opacity:0.9471"/>
	<stop  offset="0.8301" style="stop-color:#61C5AD;stop-opacity:0.917"/>
	<stop  offset="1" style="stop-color:#6CCFB0;stop-opacity:0.9"/>
</linearGradient>
<linearGradient id="SVGID_2_" gradientUnits="userSpaceOnUse" x1="-1153.1178" y1="-200.8091" x2="-1153.6188" y2="-199.9436">
	<stop  offset="0" style="stop-color:#008EBE"/>
	<stop  offset="1" style="stop-color:#0E3142"/>
</linearGradient>
<g>
	<rect x="-969.7" y="-100" width="214.3" height="214.3"/>
	<path class="st0" d="M-755.9-99.5v213.3h-213.3V-99.5H-755.9 M-754.9-100.5h-215.3v215.3h215.3V-100.5L-754.9-100.5z"/>
</g>
<linearGradient id="SVGID_3_" gradientUnits="userSpaceOnUse" x1="-952.4916" y1="-290.9755" x2="-754.1886" y2="-290.9755">
	<stop  offset="0" style="stop-color:#006D94"/>
	<stop  offset="6.000000e-02" style="stop-color:#087496;stop-opacity:0.99"/>
	<stop  offset="0.49" style="stop-color:#3EA5A4;stop-opacity:0.94"/>
	<stop  offset="0.82" style="stop-color:#5FC4AD;stop-opacity:0.91"/>
	<stop  offset="1" style="stop-color:#6CCFB0;stop-opacity:0.9"/>
</linearGradient>
<circle class="st1" cx="-853.3" cy="-291" r="98.7"/>
<title>careers-icon-1</title>
<g id="Capa_2">
	<g id="Capa_1-2">
		
			<linearGradient id="SVGID_4_" gradientUnits="userSpaceOnUse" x1="-1153.1213" y1="-270.8601" x2="-1024.9238" y2="-270.8601" gradientTransform="matrix(1 0 0 -1 0 -543.0381)">
			<stop  offset="0" style="stop-color:#006D94"/>
			<stop  offset="6.000000e-02" style="stop-color:#087496;stop-opacity:0.99"/>
			<stop  offset="0.49" style="stop-color:#3EA5A4;stop-opacity:0.94"/>
			<stop  offset="0.82" style="stop-color:#5FC4AD;stop-opacity:0.91"/>
			<stop  offset="1" style="stop-color:#6CCFB0;stop-opacity:0.9"/>
		</linearGradient>
		<path class="st2" d="M-1053.4-321.7l18.2-2.7 M-1074.1-319.6l26.7-22.8 M-1089-205.2l7.4-4.8l11.8-4.3l3.5-18.5l12.9-21l24.3,12.3
			l-11.8-39.6l-16.4,2.3l-27.5,1.8l-4.2-4.1l29.8-20l18.4,20 M-1089-201.3l11.4-3.9l7.9-9.1l27.6-20.7l13.2-6.6l3.5-30.6l-15.3-8.9
			l5.7-43.3l-12.3-18l-11.9,41.2l-14.9-18.4l-14.9-1.8l29.8,20.2l-29.8,2.6 M-1059.2-301.2l2,22.4l3.9,25l11.2,18.8 M-1029-241.6
			l-28.3-37.2l-3.5,10l-8.7,5.3l-8.3-2.6l11.5,33.3 M-1072-273.9l-5.7,7.7l17-2.7L-1072-273.9z M-1089-281.1v54.6l7.2,1l4,6.1
			l-11.3-2v10.2l7.8-2.3l3.5-5.8l-7-57.7 M-1089-221.4l7.7,7.9 M-1142.9-324.4l18.2,2.7 M-1103.9-319.6l-26.7-22.8 M-1137.2-281.1
			l18.4-20l29.8,20l-4.2,4.1l-27.5-1.8L-1137.2-281.1l-11.9,39.6l24.4-12.3l12.9,21l3.5,18.5l11.8,4.3l7.5,4.8 M-1089-298.7
			l-29.8-2.5l29.8-20.2l-14.9,1.8l-14.9,18.4l-11.8-41.1l-12.3,18l5.7,43.3l-15.3,8.9l3.5,30.6l13.2,6.6l27.6,20.7l7.9,9.1l11.4,3.9
			 M-1135.9-235l11.2-18.8l3.9-25l2-22.3 M-1111.8-232.8l11.5-33.3l-8.3,2.6l-8.7-5.3l-3.5-10l-28.3,37.3 M-1117.3-268.9l17,2.7
			l-5.7-7.7L-1117.3-268.9z M-1093.3-277.1l-7,57.7l3.5,5.8l7.8,2.3v-10.2l-11.3,2l4-6.1l7.2-1v-54.6 M-1089.1-221.4l-7.7,7.9"/>
	</g>
</g>
<g id="Capa_2_1_">
	<g id="Capa_1-2_1_">
		
			<linearGradient id="SVGID_5_" gradientUnits="userSpaceOnUse" x1="-917.4387" y1="-251.7186" x2="-789.2411" y2="-251.7186" gradientTransform="matrix(1 0 0 -1 0 -543.0381)">
			<stop  offset="0" style="stop-color:#006D94"/>
			<stop  offset="6.000000e-02" style="stop-color:#087496;stop-opacity:0.99"/>
			<stop  offset="0.49" style="stop-color:#3EA5A4;stop-opacity:0.94"/>
			<stop  offset="0.82" style="stop-color:#5FC4AD;stop-opacity:0.91"/>
			<stop  offset="1" style="stop-color:#6CCFB0;stop-opacity:0.9"/>
		</linearGradient>
		<path class="st3" d="M-817.7-340.9l18.2-2.7 M-838.4-338.7l26.7-22.8 M-853.4-224.4l7.5-4.8l11.8-4.3l3.5-18.5l12.9-21l24.3,12.3
			l-11.8-39.6l-16.4,2.3l-27.5,1.8l-4.2-4.1l29.8-20l18.4,20 M-853.4-220.4l11.4-3.9l7.9-9.1l27.7-20.7l13.1-6.6l3.5-30.6l-15.3-8.9
			l5.7-43.3l-12.3-18l-11.9,41.2l-14.9-18.4l-14.9-1.8l29.8,20.2l-29.8,2.6 M-823.5-320.3l2,22.4l3.9,25l11.2,18.8 M-793.3-260.7
			l-28.3-37.2l-3.5,10l-8.7,5.3l-8.3-2.6l11.5,33.3 M-836.4-293l-5.7,7.7l17-2.7L-836.4-293z M-853.4-300.3v54.6l7.2,1l4,6.1
			l-11.3-2v10.2l7.8-2.3l3.5-5.8l-7-57.7 M-853.3-240.5l7.7,7.9 M-907.3-343.5l18.2,2.7 M-868.3-338.7l-26.7-22.8 M-901.6-300.3
			l18.4-20l29.8,20l-4.2,4.1l-27.5-1.8L-901.6-300.3l-11.9,39.6l24.4-12.3l12.9,21l3.5,18.5l11.8,4.3l7.4,4.8 M-853.4-317.8
			l-29.8-2.5l29.8-20.2l-14.9,1.8l-14.9,18.4l-11.8-41.1l-12.3,18l5.7,43.3l-15.3,8.9l3.5,30.6l13.1,6.6l27.6,20.7l7.9,9.1l11.4,3.9
			 M-900.3-254.2l11.2-18.8l3.9-25l2-22.4 M-876.1-252l11.5-33.4l-8.3,2.6l-8.7-5.3l-3.5-10l-28.3,37.3 M-881.6-288l17,2.7l-5.7-7.7
			L-881.6-288z M-857.6-296.2l-7,57.7l3.5,5.8l7.8,2.3v-10.2l-11.3,2l4-6.1l7.2-1v-54.6 M-853.4-240.6l-7.7,7.9"/>
	</g>
</g>
<linearGradient id="SVGID_6_" gradientUnits="userSpaceOnUse" x1="-696.5309" y1="-290.9755" x2="-498.2279" y2="-290.9755">
	<stop  offset="0" style="stop-color:#006D94"/>
	<stop  offset="6.000000e-02" style="stop-color:#087496;stop-opacity:0.99"/>
	<stop  offset="0.49" style="stop-color:#3EA5A4;stop-opacity:0.94"/>
	<stop  offset="0.82" style="stop-color:#5FC4AD;stop-opacity:0.91"/>
	<stop  offset="1" style="stop-color:#6CCFB0;stop-opacity:0.9"/>
</linearGradient>
<circle class="st4" cx="-597.4" cy="-291" r="98.7"/>
<g id="Capa_2_2_">
	<g id="Capa_1-2_2_">
		
			<linearGradient id="SVGID_7_" gradientUnits="userSpaceOnUse" x1="-661.478" y1="-251.7186" x2="-533.2805" y2="-251.7186" gradientTransform="matrix(1 0 0 -1 0 -543.0381)">
			<stop  offset="0" style="stop-color:#006D94"/>
			<stop  offset="6.000000e-02" style="stop-color:#087496;stop-opacity:0.99"/>
			<stop  offset="0.49" style="stop-color:#3EA5A4;stop-opacity:0.94"/>
			<stop  offset="0.82" style="stop-color:#5FC4AD;stop-opacity:0.91"/>
			<stop  offset="1" style="stop-color:#6CCFB0;stop-opacity:0.9"/>
		</linearGradient>
		<path class="st5" d="M-561.7-340.9l18.2-2.7 M-582.5-338.7l26.7-22.8 M-597.4-224.4l7.4-4.8l11.8-4.3l3.5-18.5l12.9-21l24.3,12.3
			l-11.8-39.6l-16.4,2.3l-27.5,1.8l-4.2-4.1l29.8-20l18.4,20 M-597.4-220.4l11.4-3.9l7.9-9.1l27.7-20.7l13.1-6.6l3.5-30.6l-15.3-8.9
			l5.7-43.3l-12.3-18l-11.9,41.2l-14.9-18.4l-14.9-1.8l29.8,20.2l-29.8,2.6 M-567.6-320.3l2,22.4l3.9,25l11.2,18.8 M-537.3-260.7
			l-28.3-37.2l-3.5,10l-8.7,5.3l-8.3-2.6l11.5,33.3 M-580.4-293l-5.7,7.7l17-2.7L-580.4-293z M-597.4-300.3v54.6l7.2,1l4,6.1
			l-11.3-2v10.2l7.8-2.3l3.5-5.8l-7-57.7 M-597.4-240.5l7.7,7.9 M-651.3-343.5l18.2,2.7 M-612.3-338.7l-26.7-22.8 M-645.6-300.3
			l18.4-20l29.8,20l-4.2,4.1l-27.5-1.8L-645.6-300.3l-11.9,39.6l24.4-12.3l12.9,21l3.5,18.5l11.8,4.3l7.5,4.8 M-597.4-317.8
			l-29.8-2.5l29.8-20.2l-14.9,1.8l-14.9,18.4l-11.8-41.1l-12.3,18l5.7,43.3l-15.3,8.9l3.5,30.6l13.1,6.6l27.6,20.7l7.9,9.1l11.4,3.9
			 M-644.3-254.2l11.2-18.8l3.9-25l2-22.4 M-620.2-252l11.5-33.4l-8.3,2.6l-8.7-5.3l-3.5-10l-28.3,37.3 M-625.7-288l17,2.7l-5.7-7.7
			L-625.7-288z M-601.7-296.2l-7,57.7l3.5,5.8l7.8,2.3v-10.2l-11.3,2l4-6.1l7.2-1v-54.6 M-597.4-240.6l-7.7,7.9"/>
	</g>
</g>
<circle class="st6" cx="-334.3" cy="-291" r="98.7"/>
<g id="Capa_2_3_">
	<g id="Capa_1-2_3_">
		<path class="st7" d="M-298.6-340.9l18.2-2.7 M-319.4-338.7l26.7-22.8 M-334.3-224.4l7.5-4.8l11.8-4.3l3.5-18.5l12.9-21l24.3,12.3
			l-11.8-39.6l-16.4,2.3l-27.5,1.8l-4.2-4.1l29.8-20l18.4,20 M-334.3-220.4l11.4-3.9l7.9-9.1l27.6-20.7l13.2-6.6l3.5-30.6l-15.3-8.9
			l5.7-43.3l-12.3-18l-11.9,41.2l-14.9-18.4l-14.9-1.8l29.8,20.2l-29.8,2.6 M-304.5-320.3l2,22.4l3.9,25l11.2,18.8 M-274.2-260.7
			l-28.3-37.2l-3.5,10l-8.7,5.3l-8.3-2.6l11.5,33.3 M-317.3-293l-5.7,7.7l17-2.7L-317.3-293z M-334.3-300.3v54.6l7.2,1l4,6.1
			l-11.3-2v10.2l7.8-2.3l3.5-5.8l-7-57.7 M-334.3-240.5l7.7,7.9 M-388.2-343.5l18.2,2.7 M-349.2-338.7l-26.7-22.8 M-382.5-300.3
			l18.4-20l29.8,20l-4.2,4.1l-27.5-1.8L-382.5-300.3l-11.9,39.6L-370-273l12.9,21l3.5,18.5l11.8,4.3l7.5,4.8 M-334.3-317.8
			l-29.8-2.5l29.8-20.2l-14.9,1.8l-14.9,18.4l-11.8-41.1l-12.3,18l5.7,43.3l-15.3,8.9l3.5,30.6l13.2,6.6l27.6,20.7l7.9,9.1l11.4,3.9
			 M-381.2-254.2L-370-273l3.9-25l2-22.4 M-357.1-252l11.5-33.4l-8.3,2.6l-8.7-5.3l-3.5-10l-28.3,37.3 M-362.6-288l17,2.7l-5.7-7.7
			L-362.6-288z M-338.6-296.2l-7,57.7l3.5,5.8l7.8,2.3v-10.2l-11.3,2l4-6.1l7.2-1v-54.6 M-334.3-240.6l-7.7,7.9"/>
	</g>
</g>
<radialGradient id="SVGID_8_" cx="-55.4468" cy="-173.1826" r="98.6515" gradientUnits="userSpaceOnUse">
	<stop  offset="0" style="stop-color:#6CCFB0;stop-opacity:0.9"/>
	<stop  offset="4.678525e-02" style="stop-color:#66C9AE;stop-opacity:0.9042"/>
	<stop  offset="0.4112" style="stop-color:#39A1A3;stop-opacity:0.9367"/>
	<stop  offset="0.6935" style="stop-color:#1D879C;stop-opacity:0.9619"/>
	<stop  offset="0.8577" style="stop-color:#137E99;stop-opacity:0.9766"/>
</radialGradient>
<circle class="st8" cx="-55.4" cy="-173.2" r="98.7"/>
<g id="Capa_2_6_">
	<g id="Capa_1-2_6_">
		<path class="st7" d="M-19.8-223.1l18.2-2.7 M-40.5-220.9l26.7-22.8 M-55.5-106.6l7.4-4.8l11.8-4.3l3.5-18.5l12.9-21l24.3,12.3
			l-11.8-39.6l-16.4,2.3l-27.5,1.8l-4.2-4.1l29.8-20l18.4,20 M-55.5-102.6l11.4-3.9l7.9-9.1l27.7-20.7l13.2-6.6l3.5-30.6l-15.3-8.9
			l5.7-43.3l-12.3-18l-11.9,41.2l-14.9-18.4l-14.9-1.8l29.8,20.2l-29.8,2.6 M-25.6-202.5l2,22.4l3.9,25l11.2,18.8 M4.6-142.9
			l-28.3-37.2l-3.5,10l-8.7,5.3l-8.3-2.6l11.5,33.3 M-38.5-175.2l-5.7,7.7l17-2.7L-38.5-175.2z M-55.5-182.5v54.6l7.2,1l4,6.1
			l-11.3-2v10.2l7.8-2.3l3.5-5.8l-7-57.7 M-55.5-122.7l7.7,7.9 M-109.4-225.7l18.2,2.7 M-70.4-220.9l-26.7-22.8 M-103.7-182.5
			l18.4-20l29.8,20l-4.2,4.1l-27.5-1.8L-103.7-182.5l-11.9,39.6l24.4-12.3l12.9,21l3.5,18.5l11.8,4.3l7.4,4.8 M-55.5-200l-29.8-2.6
			l29.8-20.2l-14.9,1.8l-14.9,18.4l-11.8-41.1l-12.3,18l5.7,43.3l-15.3,8.9l3.5,30.6l13.2,6.6l27.6,20.7l7.9,9.1l11.4,3.9
			 M-102.4-136.4l11.2-18.8l3.9-25l2-22.3 M-78.2-134.2l11.5-33.3l-8.3,2.6l-8.7-5.3l-3.5-10l-28.3,37.3 M-83.7-170.2l17,2.7
			l-5.7-7.7L-83.7-170.2z M-59.7-178.4l-7,57.7l3.5,5.8l7.8,2.3v-10.2l-11.3,2l4-6.1l7.2-1v-54.6 M-55.5-122.8l-7.7,7.9"/>
	</g>
</g>
<g id="Capa_2_4_">
	<g id="Capa_1-2_4_">
		<path class="st7" d="M-826.1-54.9l18.2-2.7 M-846.8-52.8l26.7-22.8 M-861.8,61.6l7.5-4.8l11.8-4.3L-839,34l12.9-21l24.3,12.3
			l-11.8-39.6L-830-12l-27.5,1.8l-4.2-4.1l29.8-20l18.4,20 M-861.8,65.5l11.4-3.9l7.9-9.1l27.6-20.7l13.2-6.6l3.5-30.6l-15.3-8.9
			l5.7-43.3l-12.3-18L-832-34.4l-14.9-18.4l-14.9-1.8l29.8,20.2l-29.8,2.5 M-831.9-34.4l2,22.3l3.9,25l11.2,18.8 M-801.7,25.2
			L-830-12l-3.5,10l-8.7,5.3l-8.3-2.6L-839,34 M-844.8-7.1l-5.7,7.7l17-2.7L-844.8-7.1z M-861.8-14.4v54.6l7.2,1l4,6.1l-11.3-2v10.2
			l7.8-2.3l3.5-5.8l-7-57.7 M-861.7,45.4l7.7,7.9 M-915.7-57.6l18.2,2.7 M-876.7-52.8l-26.7-22.8 M-910-14.4l18.4-20l29.8,20
			l-4.2,4.1l-27.5-1.8L-910-14.4l-11.9,39.6l24.4-12.3l12.9,21l3.5,18.5l11.8,4.3l7.5,4.8 M-861.8-31.9l-29.8-2.5l29.8-20.2
			l-14.9,1.8l-14.9,18.4l-11.8-41.1l-12.3,18l5.7,43.3l-15.3,8.9l3.5,30.6l13.2,6.6l27.6,20.7l7.9,9.1l11.4,3.9 M-908.6,31.8
			l11.2-18.8l3.9-25l2-22.3 M-884.5,33.9L-873,0.6l-8.3,2.6l-8.7-5.3l-3.5-10l-28.3,37.3 M-890-2.1l17,2.7l-5.7-7.7L-890-2.1z
			 M-866-10.3l-7,57.7l3.5,5.8l7.8,2.3V45.4l-11.3,2l4-6.1l7.2-1v-54.6 M-861.8,45.4l-7.7,7.9"/>
	</g>
</g>
<rect x="-944.9" y="79.1" style="fill:none;" width="169.3" height="67.9"/>
<text transform="matrix(1 0 0 1 -926.5777 90.8167)" class="st0" style="font-family:'Raleway-Bold'; font-size:16px; letter-spacing:3;">THE WOLVES</text>
<g>
	<g>
		<path class="st0" d="M-313.6-210.7c-0.7,0.3-1.5,0.7-2.2,1c1.3,1.5,2.7,3.1,4.1,4.6c-0.4,0.2-0.9,0.4-1.3,0.6
			c-1.4-1.5-2.8-3.1-4.1-4.6c-0.7,0.3-1.5,0.6-2.2,1c-0.3-0.3-0.5-0.6-0.8-1c2-0.8,3.9-1.6,5.8-2.5
			C-314.2-211.3-313.9-211-313.6-210.7z"/>
		<path class="st0" d="M-306.2-215.7c1.6,1.8,3.3,3.5,5,5.3c-0.4,0.2-0.8,0.5-1.3,0.7c-0.7-0.7-1.5-1.5-2.2-2.2c-1,0.5-2,1-3,1.6
			c0.7,0.8,1.4,1.5,2.2,2.3c-0.4,0.2-0.9,0.4-1.3,0.7c-1.7-1.8-3.4-3.6-5-5.4c0.4-0.2,0.9-0.4,1.3-0.6c0.6,0.7,1.3,1.5,2,2.2
			c1-0.5,2-1,3-1.5c-0.7-0.7-1.3-1.4-2-2.2C-307-215.3-306.6-215.5-306.2-215.7z"/>
		<path class="st0" d="M-294.5-215.7c0.3,0.3,0.6,0.6,0.9,0.8c-1.4,0.9-2.9,1.8-4.4,2.6c-1.7-1.7-3.4-3.4-5-5.2
			c1.4-0.8,2.9-1.6,4.3-2.5c0.3,0.3,0.6,0.6,0.8,0.9c-1,0.6-2,1.2-3.1,1.8c0.4,0.4,0.8,0.8,1.2,1.2c0.9-0.5,1.8-1,2.6-1.6
			c0.3,0.3,0.5,0.5,0.8,0.8c-0.9,0.5-1.8,1.1-2.6,1.6c0.4,0.4,0.9,0.9,1.3,1.3C-296.6-214.5-295.5-215.1-294.5-215.7z"/>
		<path class="st0" d="M-290.5-225.1c0.3-0.2,0.7-0.5,1-0.7c0.8,0.4,1.5,0.8,2.3,1.1c-0.3-0.7-0.7-1.4-1-2c0.3-0.2,0.7-0.5,1-0.7
			c0.4,1,0.9,1.9,1.3,2.9c0.8,0.3,1.6,0.7,2.4,1c-0.8-1.6-1.6-3.2-2.3-4.8c0.4-0.3,0.8-0.6,1.2-0.9c0.9,2.1,1.8,4.3,2.8,6.4
			c-0.3,0.2-0.6,0.5-0.9,0.7c-1.1-0.4-2.1-0.8-3.2-1.2c0.4,0.9,0.8,1.8,1.2,2.7c-0.3,0.2-0.6,0.5-1,0.7c-2.5-1-5-2.1-7.5-3.2
			c0.4-0.3,0.8-0.5,1.2-0.8c1.8,0.9,3.7,1.8,5.6,2.6c-0.3-0.7-0.6-1.4-0.9-2C-288.4-224.1-289.5-224.6-290.5-225.1z"/>
		<path class="st0" d="M-275.3-228.2c-0.4,0.3-0.8,0.6-1.3,0.7c-0.5,0.1-0.9,0.2-1.4,0.2c-0.5,0-0.9-0.1-1.4-0.3
			c-0.4-0.2-0.8-0.4-1.2-0.7c-0.3-0.3-0.6-0.7-0.8-1c-0.2-0.4-0.3-0.8-0.3-1.2c0-0.4,0.1-0.8,0.3-1.2c0.2-0.4,0.5-0.7,0.8-1
			c0.4-0.3,0.8-0.5,1.3-0.7c0.5-0.1,0.9-0.2,1.4-0.1c0.5,0,0.9,0.1,1.3,0.3c0.4,0.2,0.8,0.4,1.1,0.7c0.3,0.3,0.6,0.6,0.8,1
			c0.2,0.4,0.3,0.8,0.3,1.2c0,0.4-0.1,0.8-0.2,1.2C-274.7-228.8-275-228.5-275.3-228.2z M-279.5-229.1c0.2,0.2,0.5,0.4,0.7,0.5
			c0.3,0.1,0.6,0.2,0.9,0.2c0.3,0,0.6,0,0.9-0.1c0.3-0.1,0.6-0.2,0.8-0.4c0.2-0.2,0.4-0.4,0.5-0.7c0.1-0.2,0.1-0.5,0.1-0.8
			c0-0.3-0.1-0.5-0.3-0.7c-0.1-0.2-0.3-0.4-0.5-0.6c-0.2-0.2-0.5-0.3-0.7-0.5c-0.3-0.1-0.6-0.2-0.8-0.2c-0.3,0-0.6,0-0.9,0.1
			c-0.3,0.1-0.5,0.2-0.8,0.4c-0.2,0.2-0.4,0.4-0.5,0.7c-0.1,0.2-0.1,0.5-0.1,0.7c0,0.2,0.1,0.5,0.2,0.7
			C-279.9-229.5-279.7-229.3-279.5-229.1z"/>
		<path class="st0" d="M-270.6-232.4c-1.8-1.4-3.5-2.9-5.1-4.3c0.3-0.3,0.6-0.6,1-0.9c1.4,1.2,2.8,2.4,4.2,3.6
			c0.8-0.8,1.7-1.6,2.5-2.4c0.3,0.2,0.6,0.5,0.9,0.7C-268.3-234.6-269.4-233.5-270.6-232.4z"/>
		<path class="st0" d="M-270.6-241.6c1.7,0.7,3.4,1.3,5.1,1.9c-0.9-1.5-1.8-2.9-2.6-4.4c0.3-0.3,0.6-0.6,0.9-1c1.1,2,2.2,4,3.4,6
			c-0.3,0.3-0.5,0.5-0.8,0.8c-2.4-0.7-4.7-1.5-7-2.3C-271.3-240.9-270.9-241.2-270.6-241.6z"/>
		<path class="st0" d="M-258.2-247c0.3,0.2,0.6,0.4,0.9,0.6c-1,1.2-2,2.3-3,3.5c-1.8-1.3-3.5-2.6-5.2-4c1-1.1,2-2.2,2.9-3.3
			c0.3,0.2,0.6,0.5,0.9,0.7c-0.7,0.8-1.4,1.6-2.1,2.4c0.4,0.3,0.8,0.6,1.2,1c0.6-0.7,1.2-1.4,1.8-2.1c0.3,0.2,0.5,0.4,0.8,0.6
			c-0.6,0.7-1.2,1.4-1.8,2.1c0.5,0.3,0.9,0.7,1.4,1C-259.6-245.4-258.9-246.2-258.2-247z"/>
		<path class="st0" d="M-257.1-254.3c-0.1,0-0.2,0-0.3,0.1c-0.1,0-0.3,0.1-0.4,0.2c-0.2,0.1-0.3,0.2-0.5,0.3
			c-0.2,0.1-0.3,0.3-0.4,0.4c-0.2,0.3-0.3,0.5-0.3,0.7c0,0.2,0.1,0.4,0.3,0.5c0.1,0.1,0.2,0.1,0.3,0.1c0.1,0,0.2,0,0.4-0.1
			c0.1-0.1,0.3-0.1,0.4-0.3c0.2-0.1,0.3-0.2,0.5-0.4c0.3-0.2,0.5-0.4,0.7-0.5c0.2-0.1,0.5-0.2,0.7-0.3c0.2-0.1,0.4-0.1,0.7,0
			c0.2,0,0.5,0.1,0.7,0.3c0.3,0.2,0.5,0.4,0.6,0.7c0.1,0.2,0.2,0.5,0.2,0.8c0,0.3-0.1,0.5-0.2,0.8c-0.1,0.3-0.3,0.5-0.5,0.8
			c-0.3,0.4-0.7,0.7-1.1,1c-0.4,0.3-0.8,0.5-1.3,0.6c-0.2-0.4-0.4-0.7-0.5-1.1c0.1,0,0.2,0,0.4-0.1c0.2-0.1,0.3-0.1,0.5-0.2
			c0.2-0.1,0.4-0.2,0.6-0.4c0.2-0.2,0.4-0.3,0.5-0.5c0.4-0.5,0.4-0.9,0.1-1.2c-0.1-0.1-0.2-0.1-0.4-0.1c-0.1,0-0.3,0-0.4,0.1
			c-0.1,0.1-0.3,0.2-0.5,0.3c-0.2,0.1-0.4,0.3-0.6,0.4c-0.3,0.2-0.5,0.3-0.7,0.5c-0.2,0.1-0.4,0.2-0.6,0.2c-0.2,0-0.4,0-0.6,0
			c-0.2,0-0.4-0.1-0.6-0.3c-0.3-0.2-0.5-0.4-0.6-0.7c-0.1-0.2-0.2-0.5-0.2-0.8c0-0.3,0.1-0.5,0.2-0.8c0.1-0.3,0.3-0.5,0.5-0.8
			c0.3-0.4,0.6-0.6,0.9-0.8c0.3-0.2,0.7-0.4,1-0.5C-257.4-255-257.3-254.6-257.1-254.3z"/>
	</g>
</g>
<g>
	<radialGradient id="SVGID_9_" cx="-510.2598" cy="7.1357" r="107.1528" gradientUnits="userSpaceOnUse">
		<stop  offset="0" style="stop-color:#6CCFB0;stop-opacity:0.9"/>
		<stop  offset="0.1871" style="stop-color:#46ADA6;stop-opacity:0.9279"/>
		<stop  offset="0.4002" style="stop-color:#218B9D;stop-opacity:0.9597"/>
		<stop  offset="0.5131" style="stop-color:#137E99;stop-opacity:0.9766"/>
		<stop  offset="0.6699" style="stop-color:#2B7497;stop-opacity:0.9841"/>
		<stop  offset="0.8755" style="stop-color:#446A95;stop-opacity:0.994"/>
		<stop  offset="1" style="stop-color:#4D6694"/>
	</radialGradient>
	<rect x="-617.4" y="-100" class="st9" width="214.3" height="214.3"/>
	<path class="st0" d="M-403.6-99.5v213.3h-213.3V-99.5H-403.6 M-402.6-100.5h-215.3v215.3h215.3V-100.5L-402.6-100.5z"/>
</g>
<g id="Capa_2_5_">
	<g id="Capa_1-2_5_">
		<path class="st7" d="M-473.8-54.9l18.2-2.7 M-494.5-52.8l26.7-22.8 M-509.4,61.6l7.5-4.8l11.8-4.3l3.5-18.5l12.9-21l24.3,12.3
			l-11.8-39.6l-16.4,2.3l-27.5,1.8l-4.2-4.1l29.8-20l18.4,20 M-509.4,65.5l11.4-3.9l7.9-9.1l27.6-20.7l13.2-6.6l3.5-30.6l-15.3-8.9
			l5.7-43.3l-12.3-18l-11.9,41.2l-14.9-18.4l-14.9-1.8l29.8,20.2l-29.8,2.5 M-479.6-34.4l2,22.3l3.9,25l11.2,18.8 M-449.4,25.2
			L-477.7-12l-3.5,10l-8.7,5.3l-8.3-2.6l11.5,33.3 M-492.4-7.1l-5.7,7.7l17-2.7L-492.4-7.1z M-509.4-14.4v54.6l7.2,1l4,6.1l-11.3-2
			v10.2l7.8-2.3l3.5-5.8l-7-57.7 M-509.4,45.4l7.7,7.9 M-563.3-57.6l18.2,2.7 M-524.3-52.8l-26.7-22.8 M-557.6-14.4l18.4-20l29.8,20
			l-4.2,4.1l-27.5-1.8L-557.6-14.4l-11.9,39.6l24.4-12.3l12.9,21l3.5,18.5l11.8,4.3l7.4,4.8 M-509.4-31.9l-29.8-2.5l29.8-20.2
			l-14.9,1.8l-14.9,18.4l-11.8-41.1l-12.3,18l5.7,43.3L-573-5.4l3.5,30.6l13.1,6.6l27.6,20.7l7.9,9.1l11.4,3.9 M-556.3,31.8
			l11.2-18.8l3.9-25l2-22.3 M-532.2,33.9l11.5-33.3l-8.3,2.6l-8.7-5.3l-3.5-10l-28.3,37.3 M-537.7-2.1l17,2.7l-5.7-7.7L-537.7-2.1z
			 M-513.7-10.3l-7,57.7l3.5,5.8l7.8,2.3V45.4l-11.3,2l4-6.1l7.2-1v-54.6 M-509.5,45.4l-7.7,7.9"/>
	</g>
</g>
<rect x="-592.6" y="79.1" style="fill:none;" width="169.3" height="67.9"/>
<text transform="matrix(1 0 0 1 -574.2598 90.8167)" class="st0" style="font-family:'Raleway-Bold'; font-size:16px; letter-spacing:3;">THE WOLVES</text>
<g>
	<g>
		<linearGradient id="SVGID_10_" gradientUnits="userSpaceOnUse" x1="-219.3567" y1="-7.1529" x2="-271.7006" y2="83.2591">
			<stop  offset="0" style="stop-color:#008EBE"/>
			<stop  offset="1" style="stop-color:#0E3142"/>
		</linearGradient>
		<path class="st10" d="M-182.2,8.8c-0.1-0.1-0.2-0.1-0.2-0.2c-0.4-0.3-0.8-0.6-1.2-0.9c-0.2-0.2-0.4-0.3-0.6-0.5
			c-0.4-0.3-0.8-0.5-1.2-0.8c-0.2-0.1-0.4-0.3-0.7-0.4c-0.4-0.3-0.8-0.6-1.3-0.8c-0.2-0.1-0.4-0.2-0.6-0.4c-0.5-0.3-1-0.6-1.5-0.9
			c-0.1-0.1-0.3-0.2-0.4-0.2c-0.6-0.3-1.2-0.7-1.8-1c0,0-0.1,0-0.1-0.1c-7.3-3.9-15.4-6.6-24.1-7.8c-3.5-0.5-7-0.7-10.5-0.7
			c-0.2,0-0.4,0-0.7,0c-0.9,0-1.8,0.1-2.7,0.1c-0.4,0-0.9,0.1-1.3,0.1c-0.5,0-1.1,0.1-1.6,0.1c-0.8,0.1-1.6,0.2-2.4,0.3
			c-0.3,0-0.6,0.1-0.9,0.1c-1.1,0.2-2.1,0.3-3.2,0.5c-0.2,0-0.4,0.1-0.6,0.1c-0.6,0.1-1.2,0.3-1.8,0.4c-0.3,0.1-0.6,0.1-0.9,0.2
			c-0.9,0.2-1.8,0.5-2.7,0.7c-0.2,0.1-0.4,0.1-0.6,0.2c-26,7.7-46.4,30.1-50.4,58.7c-0.1,0.4-0.1,0.8-0.1,1.1
			c0.1-0.5,0.1-0.9,0.2-1.4l0,0c0,0,0,0,0,0l0,0l0,0c0,14.6,11.8,26.5,26.5,26.5l15.8,0l28.2-50.1l7.4-13.1
			C-211.1,6.1-194.9,1.6-182.2,8.8L-182.2,8.8z"/>
		<g>
			<linearGradient id="SVGID_11_" gradientUnits="userSpaceOnUse" x1="-188.0615" y1="96.1914" x2="-283.8091" y2="96.1914">
				<stop  offset="0" style="stop-color:#006D94"/>
				<stop  offset="1" style="stop-color:#77CDCF"/>
			</linearGradient>
			<path class="st11" d="M-196.6,82.1l-57.1,0l-15.8,0c-14.6,0-26.5-11.9-26.5-26.5l0,0c-1.7,11.8-0.4,24.2,4.3,36.1
				c0.9,2.3,1.9,4.5,3,6.6c0,0,0,0.1,0,0.1c0.5,1,1,1.9,1.6,2.9c0.1,0.2,0.2,0.4,0.3,0.6c0.4,0.7,0.8,1.4,1.2,2
				c0.3,0.4,0.5,0.8,0.8,1.2c0.4,0.6,0.8,1.2,1.2,1.8c0.4,0.5,0.8,1,1.1,1.6c0.1,0.1,0.2,0.3,0.3,0.4c0.7,1,1.5,1.9,2.3,2.9
				c0.1,0.1,0.1,0.1,0.2,0.2c1.3,1.5,2.7,3,4.1,4.4c0.1,0.1,0.3,0.3,0.4,0.4c0.4,0.4,0.8,0.8,1.2,1.1l0,0l0,0
				c19.5,18,48.3,24.4,74.6,14c0.2-0.1,0.4-0.2,0.6-0.3l0,0c0,0,0,0,0,0l0,0l0,0c12.7-7.3,17-23.5,9.7-36.2L-196.6,82.1z"/>
			<linearGradient id="SVGID_12_" gradientUnits="userSpaceOnUse" x1="-188.0769" y1="109.6711" x2="-283.9036" y2="109.6711">
				<stop  offset="0" style="stop-color:#006D94"/>
				<stop  offset="1" style="stop-color:#77CDCF"/>
			</linearGradient>
			<path class="st12" d="M-169.5,109.8c0.1-0.2,0.3-0.4,0.4-0.6c-0.2,0.3-0.5,0.6-0.7,0.9C-169.7,110-169.6,109.9-169.5,109.8z"/>
		</g>
		<linearGradient id="SVGID_13_" gradientUnits="userSpaceOnUse" x1="-219.1595" y1="16.5838" x2="-166.7273" y2="104.9645">
			<stop  offset="0" style="stop-color:#006D94"/>
			<stop  offset="0.1334" style="stop-color:#127D99;stop-opacity:0.9867"/>
			<stop  offset="0.5286" style="stop-color:#43A9A5;stop-opacity:0.9471"/>
			<stop  offset="0.8301" style="stop-color:#61C5AD;stop-opacity:0.917"/>
			<stop  offset="1" style="stop-color:#6CCFB0;stop-opacity:0.9"/>
		</linearGradient>
		<path class="st13" d="M-181.1,9.6c-0.4-0.3-0.7-0.6-1.1-0.8l0,0l0,0c-12.7-7.2-28.9-2.6-36,10.1l-7.4,13.1l28.9,50.1l7.7,13.3
			c7.3,12.7,3,28.8-9.7,36.2l0,0c11.1-4.5,21.1-11.8,29.1-21.8c2.3-2.9,4.3-5.8,6-8.9c0.1-0.1,0.1-0.2,0.2-0.3
			c0.5-0.9,1-1.9,1.5-2.8c0.1-0.2,0.2-0.4,0.3-0.7c0.3-0.7,0.6-1.3,0.9-2c0.2-0.4,0.4-0.8,0.5-1.1c0.3-0.7,0.6-1.4,0.9-2.1
			c0.2-0.5,0.4-0.9,0.5-1.4c0.2-0.5,0.4-1,0.5-1.5c0.2-0.7,0.5-1.4,0.7-2.1c0.1-0.5,0.3-0.9,0.4-1.4c0.1-0.5,0.3-0.9,0.4-1.4
			c0.2-0.6,0.3-1.3,0.5-2h0C-149.8,56-158.6,27.4-181.1,9.6z"/>
	</g>
</g>
<g>
	<linearGradient id="SVGID_14_" gradientUnits="userSpaceOnUse" x1="-583.3336" y1="-229.8881" x2="-516.6454" y2="-229.8881">
		<stop  offset="0" style="stop-color:#006D94"/>
		<stop  offset="0.1334" style="stop-color:#127D99;stop-opacity:0.9867"/>
		<stop  offset="0.5286" style="stop-color:#43A9A5;stop-opacity:0.9471"/>
		<stop  offset="0.8301" style="stop-color:#61C5AD;stop-opacity:0.917"/>
		<stop  offset="1" style="stop-color:#6CCFB0;stop-opacity:0.9"/>
	</linearGradient>
	<path class="st14" d="M-576.7-210.7c-0.7,0.3-1.5,0.7-2.2,1c1.3,1.5,2.7,3.1,4.1,4.6c-0.4,0.2-0.9,0.4-1.3,0.6
		c-1.4-1.5-2.8-3.1-4.1-4.6c-0.7,0.3-1.5,0.6-2.2,1c-0.3-0.3-0.5-0.6-0.8-1c2-0.8,3.9-1.6,5.8-2.5C-577.3-211.3-577-211-576.7-210.7
		z M-569.3-215.7c1.6,1.8,3.3,3.5,5,5.3c-0.4,0.2-0.8,0.5-1.3,0.7c-0.7-0.7-1.5-1.5-2.2-2.2c-1,0.5-2,1-3,1.6
		c0.7,0.8,1.4,1.5,2.2,2.3c-0.4,0.2-0.9,0.4-1.3,0.7c-1.7-1.8-3.4-3.6-5-5.4c0.4-0.2,0.9-0.4,1.3-0.6c0.6,0.7,1.3,1.5,2,2.2
		c1-0.5,2-1,3-1.5c-0.7-0.7-1.3-1.4-2-2.2C-570.1-215.3-569.7-215.5-569.3-215.7z M-557.6-215.7c0.3,0.3,0.6,0.6,0.9,0.8
		c-1.4,0.9-2.9,1.8-4.4,2.6c-1.7-1.7-3.4-3.4-5-5.2c1.4-0.8,2.9-1.6,4.3-2.5c0.3,0.3,0.6,0.6,0.8,0.9c-1,0.6-2,1.2-3.1,1.8
		c0.4,0.4,0.8,0.8,1.2,1.2c0.9-0.5,1.8-1,2.6-1.6c0.3,0.3,0.5,0.5,0.8,0.8c-0.9,0.5-1.8,1.1-2.6,1.6c0.4,0.4,0.9,0.9,1.3,1.3
		C-559.7-214.5-558.6-215.1-557.6-215.7z M-553.6-225.1c0.3-0.2,0.7-0.5,1-0.7c0.8,0.4,1.5,0.8,2.3,1.1c-0.3-0.7-0.7-1.4-1-2
		c0.3-0.2,0.7-0.5,1-0.7c0.4,1,0.9,1.9,1.3,2.9c0.8,0.3,1.6,0.7,2.4,1c-0.8-1.6-1.6-3.2-2.3-4.8c0.4-0.3,0.8-0.6,1.2-0.9
		c0.9,2.1,1.8,4.3,2.8,6.4c-0.3,0.2-0.6,0.5-0.9,0.7c-1.1-0.4-2.1-0.8-3.2-1.2c0.4,0.9,0.8,1.8,1.2,2.7c-0.3,0.2-0.6,0.5-1,0.7
		c-2.5-1-5-2.1-7.5-3.2c0.4-0.3,0.8-0.5,1.2-0.8c1.8,0.9,3.7,1.8,5.6,2.6c-0.3-0.7-0.6-1.4-0.9-2
		C-551.5-224.1-552.6-224.6-553.6-225.1z M-538.4-228.2c-0.4,0.3-0.8,0.6-1.3,0.7c-0.5,0.1-0.9,0.2-1.4,0.2c-0.5,0-0.9-0.1-1.4-0.3
		c-0.4-0.2-0.8-0.4-1.2-0.7c-0.3-0.3-0.6-0.7-0.8-1c-0.2-0.4-0.3-0.8-0.3-1.2c0-0.4,0.1-0.8,0.3-1.2c0.2-0.4,0.5-0.7,0.8-1
		c0.4-0.3,0.8-0.5,1.3-0.7c0.5-0.1,0.9-0.2,1.4-0.1c0.5,0,0.9,0.1,1.3,0.3c0.4,0.2,0.8,0.4,1.1,0.7c0.3,0.3,0.6,0.6,0.8,1
		c0.2,0.4,0.3,0.8,0.3,1.2c0,0.4-0.1,0.8-0.2,1.2C-537.8-228.8-538.1-228.5-538.4-228.2z M-542.6-229.1c0.2,0.2,0.5,0.4,0.7,0.5
		c0.3,0.1,0.6,0.2,0.9,0.2c0.3,0,0.6,0,0.9-0.1c0.3-0.1,0.6-0.2,0.8-0.4c0.2-0.2,0.4-0.4,0.5-0.7c0.1-0.2,0.1-0.5,0.1-0.8
		c0-0.3-0.1-0.5-0.3-0.7c-0.1-0.2-0.3-0.4-0.5-0.6c-0.2-0.2-0.5-0.3-0.7-0.5c-0.3-0.1-0.6-0.2-0.8-0.2c-0.3,0-0.6,0-0.9,0.1
		c-0.3,0.1-0.5,0.2-0.8,0.4c-0.2,0.2-0.4,0.4-0.5,0.7c-0.1,0.2-0.1,0.5-0.1,0.7c0,0.2,0.1,0.5,0.2,0.7
		C-543-229.5-542.8-229.3-542.6-229.1z M-533.7-232.4c-1.8-1.4-3.5-2.9-5.1-4.3c0.3-0.3,0.6-0.6,1-0.9c1.4,1.2,2.8,2.4,4.2,3.6
		c0.8-0.8,1.7-1.6,2.5-2.4c0.3,0.2,0.6,0.5,0.9,0.7C-531.4-234.6-532.5-233.5-533.7-232.4z M-533.7-241.6c1.7,0.7,3.4,1.3,5.1,1.9
		c-0.9-1.5-1.8-2.9-2.6-4.4c0.3-0.3,0.6-0.6,0.9-1c1.1,2,2.2,4,3.4,6c-0.3,0.3-0.5,0.5-0.8,0.8c-2.4-0.7-4.7-1.5-7-2.3
		C-534.4-240.9-534-241.2-533.7-241.6z M-521.3-247c0.3,0.2,0.6,0.4,0.9,0.6c-1,1.2-2,2.3-3,3.5c-1.8-1.3-3.5-2.6-5.2-4
		c1-1.1,2-2.2,2.9-3.3c0.3,0.2,0.6,0.5,0.9,0.7c-0.7,0.8-1.4,1.6-2.1,2.4c0.4,0.3,0.8,0.6,1.2,1c0.6-0.7,1.2-1.4,1.8-2.1
		c0.3,0.2,0.5,0.4,0.8,0.6c-0.6,0.7-1.2,1.4-1.8,2.1c0.5,0.3,0.9,0.7,1.4,1C-522.7-245.4-522-246.2-521.3-247z M-520.2-254.3
		c-0.1,0-0.2,0-0.3,0.1c-0.1,0-0.3,0.1-0.4,0.2c-0.2,0.1-0.3,0.2-0.5,0.3c-0.2,0.1-0.3,0.3-0.4,0.4c-0.2,0.3-0.3,0.5-0.3,0.7
		c0,0.2,0.1,0.4,0.3,0.5c0.1,0.1,0.2,0.1,0.3,0.1c0.1,0,0.2,0,0.4-0.1c0.1-0.1,0.3-0.1,0.4-0.3c0.2-0.1,0.3-0.2,0.5-0.4
		c0.3-0.2,0.5-0.4,0.7-0.5c0.2-0.1,0.5-0.2,0.7-0.3c0.2-0.1,0.4-0.1,0.7,0c0.2,0,0.5,0.1,0.7,0.3c0.3,0.2,0.5,0.4,0.6,0.7
		c0.1,0.2,0.2,0.5,0.2,0.8c0,0.3-0.1,0.5-0.2,0.8c-0.1,0.3-0.3,0.5-0.5,0.8c-0.3,0.4-0.7,0.7-1.1,1c-0.4,0.3-0.8,0.5-1.3,0.6
		c-0.2-0.4-0.4-0.7-0.5-1.1c0.1,0,0.2,0,0.4-0.1c0.2-0.1,0.3-0.1,0.5-0.2c0.2-0.1,0.4-0.2,0.6-0.4c0.2-0.2,0.4-0.3,0.5-0.5
		c0.4-0.5,0.4-0.9,0.1-1.2c-0.1-0.1-0.2-0.1-0.4-0.1c-0.1,0-0.3,0-0.4,0.1c-0.1,0.1-0.3,0.2-0.5,0.3c-0.2,0.1-0.4,0.3-0.6,0.4
		c-0.3,0.2-0.5,0.3-0.7,0.5c-0.2,0.1-0.4,0.2-0.6,0.2c-0.2,0-0.4,0-0.6,0c-0.2,0-0.4-0.1-0.6-0.3c-0.3-0.2-0.5-0.4-0.6-0.7
		c-0.1-0.2-0.2-0.5-0.2-0.8c0-0.3,0.1-0.5,0.2-0.8c0.1-0.3,0.3-0.5,0.5-0.8c0.3-0.4,0.6-0.6,0.9-0.8c0.3-0.2,0.7-0.4,1-0.5
		C-520.5-255-520.4-254.6-520.2-254.3z"/>
</g>
<g>
	<g>
		<path class="st0" d="M-34.8-92.9c-0.7,0.3-1.5,0.7-2.2,1c1.3,1.5,2.7,3.1,4.1,4.6c-0.4,0.2-0.9,0.4-1.3,0.6
			c-1.4-1.5-2.8-3.1-4.1-4.6c-0.7,0.3-1.5,0.6-2.2,1c-0.3-0.3-0.5-0.6-0.8-1c2-0.8,3.9-1.6,5.8-2.5C-35.4-93.5-35.1-93.2-34.8-92.9z
			"/>
		<path class="st0" d="M-27.3-97.9c1.6,1.8,3.3,3.5,5,5.3c-0.4,0.2-0.8,0.5-1.3,0.7c-0.7-0.7-1.5-1.5-2.2-2.2c-1,0.5-2,1-3,1.6
			c0.7,0.8,1.4,1.5,2.2,2.3c-0.4,0.2-0.9,0.4-1.3,0.7c-1.7-1.8-3.4-3.6-5-5.4c0.4-0.2,0.9-0.4,1.3-0.6c0.6,0.7,1.3,1.5,2,2.2
			c1-0.5,2-1,3-1.5c-0.7-0.7-1.3-1.4-2-2.2C-28.2-97.5-27.7-97.7-27.3-97.9z"/>
		<path class="st0" d="M-15.6-97.9c0.3,0.3,0.6,0.6,0.9,0.8c-1.4,0.9-2.9,1.8-4.4,2.6c-1.7-1.7-3.4-3.4-5-5.2
			c1.4-0.8,2.9-1.6,4.3-2.5c0.3,0.3,0.6,0.6,0.8,0.9c-1,0.6-2,1.2-3.1,1.8c0.4,0.4,0.8,0.8,1.2,1.2c0.9-0.5,1.8-1,2.6-1.6
			c0.3,0.3,0.5,0.5,0.8,0.8c-0.9,0.5-1.8,1.1-2.6,1.6c0.4,0.4,0.9,0.9,1.3,1.3C-17.7-96.7-16.7-97.3-15.6-97.9z"/>
		<path class="st0" d="M-11.7-107.3c0.3-0.2,0.7-0.5,1-0.7c0.8,0.4,1.5,0.8,2.3,1.1c-0.3-0.7-0.7-1.4-1-2c0.3-0.2,0.7-0.5,1-0.7
			c0.4,1,0.9,1.9,1.3,2.9c0.8,0.3,1.6,0.7,2.4,1c-0.8-1.6-1.6-3.2-2.3-4.8c0.4-0.3,0.8-0.6,1.2-0.9c0.9,2.1,1.8,4.3,2.8,6.4
			c-0.3,0.2-0.6,0.5-0.9,0.7c-1.1-0.4-2.1-0.8-3.2-1.2c0.4,0.9,0.8,1.8,1.2,2.7c-0.3,0.2-0.6,0.5-1,0.7c-2.5-1-5-2.1-7.5-3.2
			c0.4-0.3,0.8-0.5,1.2-0.8c1.8,0.9,3.7,1.8,5.6,2.6c-0.3-0.7-0.6-1.4-0.9-2C-9.5-106.3-10.6-106.8-11.7-107.3z"/>
		<path class="st0" d="M3.5-110.4c-0.4,0.3-0.8,0.6-1.3,0.7c-0.5,0.1-0.9,0.2-1.4,0.2c-0.5,0-0.9-0.1-1.4-0.3
			c-0.4-0.2-0.8-0.4-1.2-0.7c-0.3-0.3-0.6-0.7-0.8-1c-0.2-0.4-0.3-0.8-0.3-1.2c0-0.4,0.1-0.8,0.3-1.2c0.2-0.4,0.5-0.7,0.8-1
			c0.4-0.3,0.8-0.5,1.3-0.7c0.5-0.1,0.9-0.2,1.4-0.1c0.5,0,0.9,0.1,1.3,0.3c0.4,0.2,0.8,0.4,1.1,0.7c0.3,0.3,0.6,0.6,0.8,1
			c0.2,0.4,0.3,0.8,0.3,1.2c0,0.4-0.1,0.8-0.2,1.2C4.2-111,3.9-110.7,3.5-110.4z M-0.7-111.3c0.2,0.2,0.5,0.4,0.7,0.5
			c0.3,0.1,0.6,0.2,0.9,0.2c0.3,0,0.6,0,0.9-0.1c0.3-0.1,0.6-0.2,0.8-0.4c0.2-0.2,0.4-0.4,0.5-0.7c0.1-0.2,0.1-0.5,0.1-0.8
			c0-0.3-0.1-0.5-0.3-0.7c-0.1-0.2-0.3-0.4-0.5-0.6c-0.2-0.2-0.5-0.3-0.7-0.5c-0.3-0.1-0.6-0.2-0.8-0.2c-0.3,0-0.6,0-0.9,0.1
			c-0.3,0.1-0.5,0.2-0.8,0.4c-0.2,0.2-0.4,0.4-0.5,0.7c-0.1,0.2-0.1,0.5-0.1,0.7c0,0.2,0.1,0.5,0.2,0.7
			C-1.1-111.7-0.9-111.5-0.7-111.3z"/>
		<path class="st0" d="M8.2-114.6c-1.8-1.4-3.5-2.9-5.1-4.3c0.3-0.3,0.6-0.6,1-0.9c1.4,1.2,2.8,2.4,4.2,3.6c0.8-0.8,1.7-1.6,2.5-2.4
			c0.3,0.2,0.6,0.5,0.9,0.7C10.6-116.8,9.4-115.7,8.2-114.6z"/>
		<path class="st0" d="M8.2-123.8c1.7,0.7,3.4,1.3,5.1,1.9c-0.9-1.5-1.8-2.9-2.6-4.4c0.3-0.3,0.6-0.6,0.9-1c1.1,2,2.2,4,3.4,6
			c-0.3,0.3-0.5,0.5-0.8,0.8c-2.4-0.7-4.7-1.5-7-2.3C7.6-123.1,7.9-123.4,8.2-123.8z"/>
		<path class="st0" d="M20.6-129.3c0.3,0.2,0.6,0.4,0.9,0.6c-1,1.2-2,2.3-3,3.5c-1.8-1.3-3.5-2.6-5.2-4c1-1.1,2-2.2,2.9-3.3
			c0.3,0.2,0.6,0.5,0.9,0.7c-0.7,0.8-1.4,1.6-2.1,2.4c0.4,0.3,0.8,0.6,1.2,1c0.6-0.7,1.2-1.4,1.8-2.1c0.3,0.2,0.5,0.4,0.8,0.6
			c-0.6,0.7-1.2,1.4-1.8,2.1c0.5,0.3,0.9,0.7,1.4,1C19.2-127.6,19.9-128.4,20.6-129.3z"/>
		<path class="st0" d="M21.7-136.5c-0.1,0-0.2,0-0.3,0.1c-0.1,0-0.3,0.1-0.4,0.2c-0.2,0.1-0.3,0.2-0.5,0.3c-0.2,0.1-0.3,0.3-0.4,0.4
			c-0.2,0.3-0.3,0.5-0.3,0.7c0,0.2,0.1,0.4,0.3,0.5c0.1,0.1,0.2,0.1,0.3,0.1c0.1,0,0.2,0,0.4-0.1c0.1-0.1,0.3-0.1,0.4-0.3
			c0.2-0.1,0.3-0.2,0.5-0.4c0.3-0.2,0.5-0.4,0.7-0.5c0.2-0.1,0.5-0.2,0.7-0.3c0.2-0.1,0.4-0.1,0.7,0c0.2,0,0.5,0.1,0.7,0.3
			c0.3,0.2,0.5,0.4,0.6,0.7c0.1,0.2,0.2,0.5,0.2,0.8c0,0.3-0.1,0.5-0.2,0.8c-0.1,0.3-0.3,0.5-0.5,0.8c-0.3,0.4-0.7,0.7-1.1,1
			c-0.4,0.3-0.8,0.5-1.3,0.6c-0.2-0.4-0.4-0.7-0.5-1.1c0.1,0,0.2,0,0.4-0.1c0.2-0.1,0.3-0.1,0.5-0.2c0.2-0.1,0.4-0.2,0.6-0.4
			c0.2-0.2,0.4-0.3,0.5-0.5c0.4-0.5,0.4-0.9,0.1-1.2c-0.1-0.1-0.2-0.1-0.4-0.1c-0.1,0-0.3,0-0.4,0.1c-0.1,0.1-0.3,0.2-0.5,0.3
			c-0.2,0.1-0.4,0.3-0.6,0.4c-0.3,0.2-0.5,0.3-0.7,0.5c-0.2,0.1-0.4,0.2-0.6,0.2c-0.2,0-0.4,0-0.6,0c-0.2,0-0.4-0.1-0.6-0.3
			c-0.3-0.2-0.5-0.4-0.6-0.7c-0.1-0.2-0.2-0.5-0.2-0.8c0-0.3,0.1-0.5,0.2-0.8c0.1-0.3,0.3-0.5,0.5-0.8c0.3-0.4,0.6-0.6,0.9-0.8
			c0.3-0.2,0.7-0.4,1-0.5C21.4-137.2,21.5-136.8,21.7-136.5z"/>
	</g>
</g>
<radialGradient id="SVGID_15_" cx="297.4545" cy="-173.1826" r="98.6515" gradientUnits="userSpaceOnUse">
	<stop  offset="0" style="stop-color:#6CCFB0;stop-opacity:0.9"/>
	<stop  offset="0.1871" style="stop-color:#46ADA6;stop-opacity:0.9279"/>
	<stop  offset="0.4002" style="stop-color:#218B9D;stop-opacity:0.9597"/>
	<stop  offset="0.5131" style="stop-color:#137E99;stop-opacity:0.9766"/>
	<stop  offset="0.6699" style="stop-color:#2B7497;stop-opacity:0.9841"/>
	<stop  offset="0.8755" style="stop-color:#446A95;stop-opacity:0.994"/>
	<stop  offset="1" style="stop-color:#4D6694"/>
</radialGradient>
<circle class="st15" cx="297.5" cy="-173.2" r="98.7"/>
<g id="Capa_2_8_">
	<g id="Capa_1-2_8_">
		<path class="st7" d="M333.1-223.1l18.2-2.7 M312.4-220.9l26.7-22.8 M297.4-106.6l7.4-4.8l11.8-4.3l3.5-18.5l12.9-21l24.3,12.3
			l-11.8-39.6l-16.4,2.3l-27.5,1.8l-4.2-4.1l29.8-20l18.4,20 M297.4-102.6l11.4-3.9l7.9-9.1l27.7-20.7l13.1-6.6l3.5-30.6l-15.3-8.9
			l5.7-43.3l-12.3-18l-11.9,41.2l-14.9-18.4l-14.9-1.8l29.8,20.2l-29.8,2.6 M327.3-202.5l2,22.4l3.9,25l11.2,18.8 M357.5-142.9
			l-28.3-37.2l-3.5,10l-8.7,5.3l-8.3-2.6l11.5,33.3 M314.4-175.2l-5.7,7.7l17-2.7L314.4-175.2z M297.4-182.5v54.6l7.2,1l4,6.1
			l-11.3-2v10.2l7.8-2.3l3.5-5.8l-7-57.7 M297.4-122.7l7.7,7.9 M243.5-225.7l18.2,2.7 M282.5-220.9l-26.7-22.8 M249.2-182.5l18.4-20
			l29.8,20l-4.2,4.1l-27.5-1.8L249.2-182.5l-11.9,39.6l24.4-12.3l12.9,21l3.5,18.5l11.8,4.3l7.4,4.8 M297.4-200l-29.8-2.6l29.8-20.2
			l-14.9,1.8l-14.9,18.4l-11.8-41.1l-12.3,18l5.7,43.3l-15.3,8.9l3.5,30.6l13.1,6.6l27.6,20.7l7.9,9.1l11.4,3.9 M250.5-136.4
			l11.2-18.8l3.9-25l2-22.3 M274.7-134.2l11.5-33.3l-8.3,2.6l-8.7-5.3l-3.5-10l-28.3,37.3 M269.2-170.2l17,2.7l-5.7-7.7L269.2-170.2
			z M293.2-178.4l-7,57.7l3.5,5.8l7.8,2.3v-10.2l-11.3,2l4-6.1l7.2-1v-54.6 M297.4-122.8l-7.7,7.9"/>
	</g>
</g>
<g>
	<g>
		<path class="st0" d="M318.1-92.9c-0.7,0.3-1.5,0.7-2.2,1c1.3,1.5,2.7,3.1,4.1,4.6c-0.4,0.2-0.9,0.4-1.3,0.6
			c-1.4-1.5-2.8-3.1-4.1-4.6c-0.7,0.3-1.5,0.6-2.2,1c-0.3-0.3-0.5-0.6-0.8-1c2-0.8,3.9-1.6,5.8-2.5
			C317.5-93.5,317.8-93.2,318.1-92.9z"/>
		<path class="st0" d="M325.6-97.9c1.6,1.8,3.3,3.5,5,5.3c-0.4,0.2-0.8,0.5-1.3,0.7c-0.7-0.7-1.5-1.5-2.2-2.2c-1,0.5-2,1-3,1.6
			c0.7,0.8,1.4,1.5,2.2,2.3c-0.4,0.2-0.9,0.4-1.3,0.7c-1.7-1.8-3.4-3.6-5-5.4c0.4-0.2,0.9-0.4,1.3-0.6c0.6,0.7,1.3,1.5,2,2.2
			c1-0.5,2-1,3-1.5c-0.7-0.7-1.3-1.4-2-2.2C324.7-97.5,325.2-97.7,325.6-97.9z"/>
		<path class="st0" d="M337.3-97.9c0.3,0.3,0.6,0.6,0.9,0.8c-1.4,0.9-2.9,1.8-4.4,2.6c-1.7-1.7-3.4-3.4-5-5.2
			c1.4-0.8,2.9-1.6,4.3-2.5c0.3,0.3,0.6,0.6,0.8,0.9c-1,0.6-2,1.2-3.1,1.8c0.4,0.4,0.8,0.8,1.2,1.2c0.9-0.5,1.8-1,2.6-1.6
			c0.3,0.3,0.5,0.5,0.8,0.8c-0.9,0.5-1.8,1.1-2.6,1.6c0.4,0.4,0.9,0.9,1.3,1.3C335.2-96.7,336.2-97.3,337.3-97.9z"/>
		<path class="st0" d="M341.2-107.3c0.3-0.2,0.7-0.5,1-0.7c0.8,0.4,1.5,0.8,2.3,1.1c-0.3-0.7-0.7-1.4-1-2c0.3-0.2,0.7-0.5,1-0.7
			c0.4,1,0.9,1.9,1.3,2.9c0.8,0.3,1.6,0.7,2.4,1c-0.8-1.6-1.6-3.2-2.3-4.8c0.4-0.3,0.8-0.6,1.2-0.9c0.9,2.1,1.8,4.3,2.8,6.4
			c-0.3,0.2-0.6,0.5-0.9,0.7c-1.1-0.4-2.1-0.8-3.2-1.2c0.4,0.9,0.8,1.8,1.2,2.7c-0.3,0.2-0.6,0.5-1,0.7c-2.5-1-5-2.1-7.5-3.2
			c0.4-0.3,0.8-0.5,1.2-0.8c1.8,0.9,3.7,1.8,5.6,2.6c-0.3-0.7-0.6-1.4-0.9-2C343.4-106.3,342.3-106.8,341.2-107.3z"/>
		<path class="st0" d="M356.4-110.4c-0.4,0.3-0.8,0.6-1.3,0.7c-0.5,0.1-0.9,0.2-1.4,0.2c-0.5,0-0.9-0.1-1.4-0.3
			c-0.4-0.2-0.8-0.4-1.2-0.7c-0.3-0.3-0.6-0.7-0.8-1c-0.2-0.4-0.3-0.8-0.3-1.2c0-0.4,0.1-0.8,0.3-1.2c0.2-0.4,0.5-0.7,0.8-1
			c0.4-0.3,0.8-0.5,1.3-0.7c0.5-0.1,0.9-0.2,1.4-0.1c0.5,0,0.9,0.1,1.3,0.3c0.4,0.2,0.8,0.4,1.1,0.7c0.3,0.3,0.6,0.6,0.8,1
			c0.2,0.4,0.3,0.8,0.3,1.2c0,0.4-0.1,0.8-0.2,1.2C357.1-111,356.8-110.7,356.4-110.4z M352.2-111.3c0.2,0.2,0.5,0.4,0.7,0.5
			c0.3,0.1,0.6,0.2,0.9,0.2c0.3,0,0.6,0,0.9-0.1c0.3-0.1,0.6-0.2,0.8-0.4c0.2-0.2,0.4-0.4,0.5-0.7c0.1-0.2,0.1-0.5,0.1-0.8
			c0-0.3-0.1-0.5-0.3-0.7c-0.1-0.2-0.3-0.4-0.5-0.6c-0.2-0.2-0.5-0.3-0.7-0.5c-0.3-0.1-0.6-0.2-0.8-0.2c-0.3,0-0.6,0-0.9,0.1
			c-0.3,0.1-0.5,0.2-0.8,0.4c-0.2,0.2-0.4,0.4-0.5,0.7c-0.1,0.2-0.1,0.5-0.1,0.7c0,0.2,0.1,0.5,0.2,0.7
			C351.8-111.7,352-111.5,352.2-111.3z"/>
		<path class="st0" d="M361.1-114.6c-1.8-1.4-3.5-2.9-5.1-4.3c0.3-0.3,0.6-0.6,1-0.9c1.4,1.2,2.8,2.4,4.2,3.6
			c0.8-0.8,1.7-1.6,2.5-2.4c0.3,0.2,0.6,0.5,0.9,0.7C363.5-116.8,362.3-115.7,361.1-114.6z"/>
		<path class="st0" d="M361.1-123.8c1.7,0.7,3.4,1.3,5.1,1.9c-0.9-1.5-1.8-2.9-2.6-4.4c0.3-0.3,0.6-0.6,0.9-1c1.1,2,2.2,4,3.4,6
			c-0.3,0.3-0.5,0.5-0.8,0.8c-2.4-0.7-4.7-1.5-7-2.3C360.5-123.1,360.8-123.4,361.1-123.8z"/>
		<path class="st0" d="M373.5-129.3c0.3,0.2,0.6,0.4,0.9,0.6c-1,1.2-2,2.3-3,3.5c-1.8-1.3-3.5-2.6-5.2-4c1-1.1,2-2.2,2.9-3.3
			c0.3,0.2,0.6,0.5,0.9,0.7c-0.7,0.8-1.4,1.6-2.1,2.4c0.4,0.3,0.8,0.6,1.2,1c0.6-0.7,1.2-1.4,1.8-2.1c0.3,0.2,0.5,0.4,0.8,0.6
			c-0.6,0.7-1.2,1.4-1.8,2.1c0.5,0.3,0.9,0.7,1.4,1C372.1-127.6,372.8-128.4,373.5-129.3z"/>
		<path class="st0" d="M374.6-136.5c-0.1,0-0.2,0-0.3,0.1c-0.1,0-0.3,0.1-0.4,0.2c-0.2,0.1-0.3,0.2-0.5,0.3
			c-0.2,0.1-0.3,0.3-0.4,0.4c-0.2,0.3-0.3,0.5-0.3,0.7c0,0.2,0.1,0.4,0.3,0.5c0.1,0.1,0.2,0.1,0.3,0.1c0.1,0,0.2,0,0.4-0.1
			c0.1-0.1,0.3-0.1,0.4-0.3c0.2-0.1,0.3-0.2,0.5-0.4c0.3-0.2,0.5-0.4,0.7-0.5c0.2-0.1,0.5-0.2,0.7-0.3c0.2-0.1,0.4-0.1,0.7,0
			c0.2,0,0.5,0.1,0.7,0.3c0.3,0.2,0.5,0.4,0.6,0.7c0.1,0.2,0.2,0.5,0.2,0.8c0,0.3-0.1,0.5-0.2,0.8c-0.1,0.3-0.3,0.5-0.5,0.8
			c-0.3,0.4-0.7,0.7-1.1,1c-0.4,0.3-0.8,0.5-1.3,0.6c-0.2-0.4-0.4-0.7-0.5-1.1c0.1,0,0.2,0,0.4-0.1c0.2-0.1,0.3-0.1,0.5-0.2
			c0.2-0.1,0.4-0.2,0.6-0.4c0.2-0.2,0.4-0.3,0.5-0.5c0.4-0.5,0.4-0.9,0.1-1.2c-0.1-0.1-0.2-0.1-0.4-0.1c-0.1,0-0.3,0-0.4,0.1
			c-0.1,0.1-0.3,0.2-0.5,0.3c-0.2,0.1-0.4,0.3-0.6,0.4c-0.3,0.2-0.5,0.3-0.7,0.5c-0.2,0.1-0.4,0.2-0.6,0.2c-0.2,0-0.4,0-0.6,0
			c-0.2,0-0.4-0.1-0.6-0.3c-0.3-0.2-0.5-0.4-0.6-0.7c-0.1-0.2-0.2-0.5-0.2-0.8c0-0.3,0.1-0.5,0.2-0.8c0.1-0.3,0.3-0.5,0.5-0.8
			c0.3-0.4,0.6-0.6,0.9-0.8c0.3-0.2,0.7-0.4,1-0.5C374.3-137.2,374.4-136.8,374.6-136.5z"/>
	</g>
</g>
<g>
	<g>
		<linearGradient id="SVGID_16_" gradientUnits="userSpaceOnUse" x1="-839.2942" y1="-208.0376" x2="-830.793" y2="-208.0376">
			<stop  offset="0" style="stop-color:#006D94"/>
			<stop  offset="0.1334" style="stop-color:#127D99;stop-opacity:0.9867"/>
			<stop  offset="0.5286" style="stop-color:#43A9A5;stop-opacity:0.9471"/>
			<stop  offset="0.8301" style="stop-color:#61C5AD;stop-opacity:0.917"/>
			<stop  offset="1" style="stop-color:#6CCFB0;stop-opacity:0.9"/>
		</linearGradient>
		<path class="st16" d="M-832.7-210.7c-0.7,0.3-1.5,0.7-2.2,1c1.3,1.5,2.7,3.1,4.1,4.6c-0.4,0.2-0.9,0.4-1.3,0.6
			c-1.4-1.5-2.8-3.1-4.1-4.6c-0.7,0.3-1.5,0.6-2.2,1c-0.3-0.3-0.5-0.6-0.8-1c2-0.8,3.9-1.6,5.8-2.5
			C-833.3-211.3-833-211-832.7-210.7z"/>
		<linearGradient id="SVGID_17_" gradientUnits="userSpaceOnUse" x1="-830.775" y1="-211.596" x2="-820.2192" y2="-211.596">
			<stop  offset="0" style="stop-color:#006D94"/>
			<stop  offset="0.1334" style="stop-color:#127D99;stop-opacity:0.9867"/>
			<stop  offset="0.5286" style="stop-color:#43A9A5;stop-opacity:0.9471"/>
			<stop  offset="0.8301" style="stop-color:#61C5AD;stop-opacity:0.917"/>
			<stop  offset="1" style="stop-color:#6CCFB0;stop-opacity:0.9"/>
		</linearGradient>
		<path class="st17" d="M-825.2-215.7c1.6,1.8,3.3,3.5,5,5.3c-0.4,0.2-0.8,0.5-1.3,0.7c-0.7-0.7-1.5-1.5-2.2-2.2c-1,0.5-2,1-3,1.6
			c0.7,0.8,1.4,1.5,2.2,2.3c-0.4,0.2-0.9,0.4-1.3,0.7c-1.7-1.8-3.4-3.6-5-5.4c0.4-0.2,0.9-0.4,1.3-0.6c0.6,0.7,1.3,1.5,2,2.2
			c1-0.5,2-1,3-1.5c-0.7-0.7-1.3-1.4-2-2.2C-826.1-215.3-825.6-215.5-825.2-215.7z"/>
		<linearGradient id="SVGID_18_" gradientUnits="userSpaceOnUse" x1="-822.0597" y1="-216.0666" x2="-812.6611" y2="-216.0666">
			<stop  offset="0" style="stop-color:#006D94"/>
			<stop  offset="0.1334" style="stop-color:#127D99;stop-opacity:0.9867"/>
			<stop  offset="0.5286" style="stop-color:#43A9A5;stop-opacity:0.9471"/>
			<stop  offset="0.8301" style="stop-color:#61C5AD;stop-opacity:0.917"/>
			<stop  offset="1" style="stop-color:#6CCFB0;stop-opacity:0.9"/>
		</linearGradient>
		<path class="st18" d="M-813.5-215.7c0.3,0.3,0.6,0.6,0.9,0.8c-1.4,0.9-2.9,1.8-4.4,2.6c-1.7-1.7-3.4-3.4-5-5.2
			c1.4-0.8,2.9-1.6,4.3-2.5c0.3,0.3,0.6,0.6,0.8,0.9c-1,0.6-2,1.2-3.1,1.8c0.4,0.4,0.8,0.8,1.2,1.2c0.9-0.5,1.8-1,2.6-1.6
			c0.3,0.3,0.5,0.5,0.8,0.8c-0.9,0.5-1.8,1.1-2.6,1.6c0.4,0.4,0.9,0.9,1.3,1.3C-815.6-214.5-814.6-215.1-813.5-215.7z"/>
		<linearGradient id="SVGID_19_" gradientUnits="userSpaceOnUse" x1="-812.2385" y1="-224.7618" x2="-800.9075" y2="-224.7618">
			<stop  offset="0" style="stop-color:#006D94"/>
			<stop  offset="0.1334" style="stop-color:#127D99;stop-opacity:0.9867"/>
			<stop  offset="0.5286" style="stop-color:#43A9A5;stop-opacity:0.9471"/>
			<stop  offset="0.8301" style="stop-color:#61C5AD;stop-opacity:0.917"/>
			<stop  offset="1" style="stop-color:#6CCFB0;stop-opacity:0.9"/>
		</linearGradient>
		<path class="st19" d="M-809.6-225.1c0.3-0.2,0.7-0.5,1-0.7c0.8,0.4,1.5,0.8,2.3,1.1c-0.3-0.7-0.7-1.4-1-2c0.3-0.2,0.7-0.5,1-0.7
			c0.4,1,0.9,1.9,1.3,2.9c0.8,0.3,1.6,0.7,2.4,1c-0.8-1.6-1.6-3.2-2.3-4.8c0.4-0.3,0.8-0.6,1.2-0.9c0.9,2.1,1.8,4.3,2.8,6.4
			c-0.3,0.2-0.6,0.5-0.9,0.7c-1.1-0.4-2.1-0.8-3.2-1.2c0.4,0.9,0.8,1.8,1.2,2.7c-0.3,0.2-0.6,0.5-1,0.7c-2.5-1-5-2.1-7.5-3.2
			c0.4-0.3,0.8-0.5,1.2-0.8c1.8,0.9,3.7,1.8,5.6,2.6c-0.3-0.7-0.6-1.4-0.9-2C-807.4-224.1-808.5-224.6-809.6-225.1z"/>
		<linearGradient id="SVGID_20_" gradientUnits="userSpaceOnUse" x1="-800.6727" y1="-230.4138" x2="-793.3414" y2="-230.4138">
			<stop  offset="0" style="stop-color:#006D94"/>
			<stop  offset="0.1334" style="stop-color:#127D99;stop-opacity:0.9867"/>
			<stop  offset="0.5286" style="stop-color:#43A9A5;stop-opacity:0.9471"/>
			<stop  offset="0.8301" style="stop-color:#61C5AD;stop-opacity:0.917"/>
			<stop  offset="1" style="stop-color:#6CCFB0;stop-opacity:0.9"/>
		</linearGradient>
		<path class="st20" d="M-794.4-228.2c-0.4,0.3-0.8,0.6-1.3,0.7c-0.5,0.1-0.9,0.2-1.4,0.2c-0.5,0-0.9-0.1-1.4-0.3
			c-0.4-0.2-0.8-0.4-1.2-0.7c-0.3-0.3-0.6-0.7-0.8-1c-0.2-0.4-0.3-0.8-0.3-1.2c0-0.4,0.1-0.8,0.3-1.2c0.2-0.4,0.5-0.7,0.8-1
			c0.4-0.3,0.8-0.5,1.3-0.7c0.5-0.1,0.9-0.2,1.4-0.1c0.5,0,0.9,0.1,1.3,0.3c0.4,0.2,0.8,0.4,1.1,0.7c0.3,0.3,0.6,0.6,0.8,1
			c0.2,0.4,0.3,0.8,0.3,1.2c0,0.4-0.1,0.8-0.2,1.2C-793.7-228.8-794-228.5-794.4-228.2z M-798.6-229.1c0.2,0.2,0.5,0.4,0.8,0.5
			c0.3,0.1,0.6,0.2,0.9,0.2c0.3,0,0.6,0,0.9-0.1c0.3-0.1,0.6-0.2,0.8-0.4c0.2-0.2,0.4-0.4,0.5-0.7c0.1-0.2,0.1-0.5,0.1-0.8
			c0-0.3-0.1-0.5-0.3-0.7c-0.1-0.2-0.3-0.4-0.5-0.6c-0.2-0.2-0.5-0.3-0.7-0.5c-0.3-0.1-0.6-0.2-0.8-0.2c-0.3,0-0.6,0-0.9,0.1
			c-0.3,0.1-0.5,0.2-0.8,0.4c-0.2,0.2-0.4,0.4-0.5,0.7c-0.1,0.2-0.1,0.5-0.1,0.7c0,0.2,0.1,0.5,0.2,0.7
			C-799-229.5-798.8-229.3-798.6-229.1z"/>
		<linearGradient id="SVGID_21_" gradientUnits="userSpaceOnUse" x1="-794.8026" y1="-235.012" x2="-786.1833" y2="-235.012">
			<stop  offset="0" style="stop-color:#006D94"/>
			<stop  offset="0.1334" style="stop-color:#127D99;stop-opacity:0.9867"/>
			<stop  offset="0.5286" style="stop-color:#43A9A5;stop-opacity:0.9471"/>
			<stop  offset="0.8301" style="stop-color:#61C5AD;stop-opacity:0.917"/>
			<stop  offset="1" style="stop-color:#6CCFB0;stop-opacity:0.9"/>
		</linearGradient>
		<path class="st21" d="M-789.7-232.4c-1.8-1.4-3.5-2.9-5.1-4.3c0.3-0.3,0.6-0.6,1-0.9c1.4,1.2,2.8,2.4,4.2,3.6
			c0.8-0.8,1.7-1.6,2.5-2.4c0.3,0.2,0.6,0.5,0.9,0.7C-787.3-234.6-788.5-233.5-789.7-232.4z"/>
		<linearGradient id="SVGID_22_" gradientUnits="userSpaceOnUse" x1="-790.6524" y1="-241.6712" x2="-782.88" y2="-241.6712">
			<stop  offset="0" style="stop-color:#006D94"/>
			<stop  offset="0.1334" style="stop-color:#127D99;stop-opacity:0.9867"/>
			<stop  offset="0.5286" style="stop-color:#43A9A5;stop-opacity:0.9471"/>
			<stop  offset="0.8301" style="stop-color:#61C5AD;stop-opacity:0.917"/>
			<stop  offset="1" style="stop-color:#6CCFB0;stop-opacity:0.9"/>
		</linearGradient>
		<path class="st22" d="M-789.7-241.6c1.7,0.7,3.4,1.3,5.1,1.9c-0.9-1.5-1.8-2.9-2.6-4.4c0.3-0.3,0.6-0.6,0.9-1c1.1,2,2.2,4,3.4,6
			c-0.3,0.3-0.5,0.5-0.8,0.8c-2.4-0.7-4.7-1.5-7-2.3C-790.3-240.9-790-241.2-789.7-241.6z"/>
		<linearGradient id="SVGID_23_" gradientUnits="userSpaceOnUse" x1="-784.5397" y1="-246.5692" x2="-776.3985" y2="-246.5692">
			<stop  offset="0" style="stop-color:#006D94"/>
			<stop  offset="0.1334" style="stop-color:#127D99;stop-opacity:0.9867"/>
			<stop  offset="0.5286" style="stop-color:#43A9A5;stop-opacity:0.9471"/>
			<stop  offset="0.8301" style="stop-color:#61C5AD;stop-opacity:0.917"/>
			<stop  offset="1" style="stop-color:#6CCFB0;stop-opacity:0.9"/>
		</linearGradient>
		<path class="st23" d="M-777.3-247c0.3,0.2,0.6,0.4,0.9,0.6c-1,1.2-2,2.3-3,3.5c-1.8-1.3-3.5-2.6-5.2-4c1-1.1,2-2.2,2.9-3.3
			c0.3,0.2,0.6,0.5,0.9,0.7c-0.7,0.8-1.4,1.6-2.1,2.4c0.4,0.3,0.8,0.6,1.2,1c0.6-0.7,1.2-1.4,1.8-2.1c0.3,0.2,0.5,0.4,0.8,0.6
			c-0.6,0.7-1.2,1.4-1.8,2.1c0.5,0.3,0.9,0.7,1.4,1C-778.7-245.4-778-246.2-777.3-247z"/>
		<linearGradient id="SVGID_24_" gradientUnits="userSpaceOnUse" x1="-779.2081" y1="-251.9429" x2="-772.6062" y2="-251.9429">
			<stop  offset="0" style="stop-color:#006D94"/>
			<stop  offset="0.1334" style="stop-color:#127D99;stop-opacity:0.9867"/>
			<stop  offset="0.5286" style="stop-color:#43A9A5;stop-opacity:0.9471"/>
			<stop  offset="0.8301" style="stop-color:#61C5AD;stop-opacity:0.917"/>
			<stop  offset="1" style="stop-color:#6CCFB0;stop-opacity:0.9"/>
		</linearGradient>
		<path class="st24" d="M-776.2-254.3c-0.1,0-0.2,0-0.3,0.1c-0.1,0-0.3,0.1-0.4,0.2c-0.2,0.1-0.3,0.2-0.5,0.3
			c-0.2,0.1-0.3,0.3-0.4,0.4c-0.2,0.3-0.3,0.5-0.3,0.7c0,0.2,0.1,0.4,0.3,0.5c0.1,0.1,0.2,0.1,0.3,0.1c0.1,0,0.2,0,0.4-0.1
			c0.1-0.1,0.3-0.1,0.4-0.3c0.2-0.1,0.3-0.2,0.5-0.4c0.3-0.2,0.5-0.4,0.7-0.5c0.2-0.1,0.5-0.2,0.7-0.3c0.2-0.1,0.4-0.1,0.7,0
			c0.2,0,0.5,0.1,0.7,0.3c0.3,0.2,0.5,0.4,0.6,0.7c0.1,0.2,0.2,0.5,0.2,0.8c0,0.3-0.1,0.5-0.2,0.8c-0.1,0.3-0.3,0.5-0.5,0.8
			c-0.3,0.4-0.7,0.7-1.1,1c-0.4,0.3-0.8,0.5-1.3,0.6c-0.2-0.4-0.4-0.7-0.5-1.1c0.1,0,0.2,0,0.4-0.1c0.2-0.1,0.3-0.1,0.5-0.2
			c0.2-0.1,0.4-0.2,0.6-0.4c0.2-0.2,0.4-0.3,0.5-0.5c0.4-0.5,0.4-0.9,0.1-1.2c-0.1-0.1-0.2-0.1-0.4-0.1c-0.1,0-0.3,0-0.4,0.1
			c-0.1,0.1-0.3,0.2-0.5,0.3c-0.2,0.1-0.4,0.3-0.6,0.4c-0.3,0.2-0.5,0.3-0.7,0.5c-0.2,0.1-0.4,0.2-0.6,0.2c-0.2,0-0.4,0-0.6,0
			c-0.2,0-0.4-0.1-0.6-0.3c-0.3-0.2-0.5-0.4-0.6-0.7c-0.1-0.2-0.2-0.5-0.2-0.8c0-0.3,0.1-0.5,0.2-0.8c0.1-0.3,0.3-0.5,0.5-0.8
			c0.3-0.4,0.6-0.6,0.9-0.8c0.3-0.2,0.7-0.4,1-0.5C-776.5-255-776.3-254.6-776.2-254.3z"/>
	</g>
</g>
<circle class="st25" cx="99.2" cy="99.2" r="98.7"/>
<g id="Capa_2_7_">
	<g id="Capa_1-2_7_">
		<path class="st26" d="M134.8,49.3l18.2-2.7 M114.1,51.4l26.7-22.8 M99.1,165.8l7.4-4.8l11.8-4.3l3.5-18.5l12.9-21l24.3,12.3
			l-11.8-39.6l-16.4,2.3l-27.5,1.8l-4.2-4.1l29.8-20l18.4,20 M99.1,169.7l11.4-3.9l7.9-9.1l27.7-20.7l13.1-6.6l3.5-30.6l-15.3-8.9
			l5.7-43.3l-12.3-18l-11.9,41.2l-14.9-18.4l-14.9-1.8L129,69.8l-29.8,2.5 M129,69.8l2,22.3l3.9,25l11.2,18.8 M159.2,129.4
			l-28.3-37.2l-3.5,10l-8.7,5.3l-8.3-2.6l11.5,33.3 M116.1,97.1l-5.7,7.7l17-2.7L116.1,97.1z M99.1,89.9v54.6l7.2,1l4,6.1l-11.3-2
			v10.2l7.8-2.3l3.5-5.8l-7-57.7 M99.1,149.6l7.7,7.9 M45.2,46.6l18.2,2.7 M84.2,51.4L57.5,28.6 M50.9,89.9l18.4-20l29.8,20
			l-4.2,4.1l-27.5-1.8L50.9,89.9l-11.9,39.6l24.4-12.3l12.9,21l3.5,18.5l11.8,4.3l7.4,4.8 M99.1,72.3l-29.8-2.6l29.8-20.2l-14.9,1.8
			L69.3,69.8L57.5,28.6l-12.3,18l5.7,43.3l-15.3,8.9l3.5,30.6l13.2,6.6l27.6,20.7l7.9,9.1l11.4,3.9 M52.2,136l11.2-18.8l3.9-25
			l2-22.3 M76.4,138.1l11.5-33.3l-8.3,2.6l-8.7-5.3l-3.5-10l-28.3,37.3 M70.9,102.1l17,2.7l-5.7-7.7L70.9,102.1z M94.9,93.9l-7,57.7
			l3.5,5.8l7.8,2.3v-10.2l-11.3,2l4-6.1l7.2-1V89.9 M99.1,149.6l-7.7,7.9"/>
	</g>
</g>
<g>
	<g>
		<path d="M119.8,179.5c-0.7,0.3-1.5,0.7-2.2,1c1.3,1.5,2.7,3.1,4.1,4.6c-0.4,0.2-0.9,0.4-1.3,0.6c-1.4-1.5-2.8-3.1-4.1-4.6
			c-0.7,0.3-1.5,0.6-2.2,1c-0.3-0.3-0.5-0.6-0.8-1c2-0.8,3.9-1.6,5.8-2.5C119.2,178.8,119.5,179.1,119.8,179.5z"/>
		<path d="M127.3,174.4c1.6,1.8,3.3,3.5,5,5.3c-0.4,0.2-0.8,0.5-1.3,0.7c-0.7-0.7-1.5-1.5-2.2-2.2c-1,0.5-2,1-3,1.6
			c0.7,0.8,1.4,1.5,2.2,2.3c-0.4,0.2-0.9,0.4-1.3,0.7c-1.7-1.8-3.4-3.6-5-5.4c0.4-0.2,0.9-0.4,1.3-0.6c0.6,0.7,1.3,1.5,2,2.2
			c1-0.5,2-1,3-1.5c-0.7-0.7-1.3-1.4-2-2.2C126.4,174.9,126.9,174.6,127.3,174.4z"/>
		<path d="M139,174.4c0.3,0.3,0.6,0.6,0.9,0.8c-1.4,0.9-2.9,1.8-4.4,2.6c-1.7-1.7-3.4-3.4-5-5.2c1.4-0.8,2.9-1.6,4.3-2.5
			c0.3,0.3,0.6,0.6,0.8,0.9c-1,0.6-2,1.2-3.1,1.8c0.4,0.4,0.8,0.8,1.2,1.2c0.9-0.5,1.8-1,2.6-1.6c0.3,0.3,0.5,0.5,0.8,0.8
			c-0.9,0.5-1.8,1.1-2.6,1.6c0.4,0.4,0.9,0.9,1.3,1.3C136.9,175.7,137.9,175,139,174.4z"/>
		<path d="M142.9,165c0.3-0.2,0.7-0.5,1-0.7c0.8,0.4,1.5,0.8,2.3,1.1c-0.3-0.7-0.7-1.4-1-2c0.3-0.2,0.7-0.5,1-0.7
			c0.4,1,0.9,1.9,1.3,2.9c0.8,0.3,1.6,0.7,2.4,1c-0.8-1.6-1.6-3.2-2.3-4.8c0.4-0.3,0.8-0.6,1.2-0.9c0.9,2.1,1.8,4.3,2.8,6.4
			c-0.3,0.2-0.6,0.5-0.9,0.7c-1.1-0.4-2.1-0.8-3.2-1.2c0.4,0.9,0.8,1.8,1.2,2.7c-0.3,0.2-0.6,0.5-1,0.7c-2.5-1-5-2.1-7.5-3.2
			c0.4-0.3,0.8-0.5,1.2-0.8c1.8,0.9,3.7,1.8,5.6,2.6c-0.3-0.7-0.6-1.4-0.9-2C145.1,166,144,165.5,142.9,165z"/>
		<path d="M158.1,162c-0.4,0.3-0.8,0.6-1.3,0.7c-0.5,0.1-0.9,0.2-1.4,0.2c-0.5,0-0.9-0.1-1.4-0.3c-0.4-0.2-0.8-0.4-1.2-0.7
			c-0.3-0.3-0.6-0.7-0.8-1c-0.2-0.4-0.3-0.8-0.3-1.2c0-0.4,0.1-0.8,0.3-1.2c0.2-0.4,0.5-0.7,0.8-1c0.4-0.3,0.8-0.5,1.3-0.7
			c0.5-0.1,0.9-0.2,1.4-0.1c0.5,0,0.9,0.1,1.3,0.3s0.8,0.4,1.1,0.7c0.3,0.3,0.6,0.6,0.8,1c0.2,0.4,0.3,0.8,0.3,1.2
			c0,0.4-0.1,0.8-0.2,1.2C158.8,161.3,158.5,161.7,158.1,162z M153.9,161c0.2,0.2,0.5,0.4,0.8,0.5c0.3,0.1,0.6,0.2,0.9,0.2
			c0.3,0,0.6,0,0.9-0.1c0.3-0.1,0.6-0.2,0.8-0.4c0.2-0.2,0.4-0.4,0.5-0.7c0.1-0.2,0.1-0.5,0.1-0.8c0-0.3-0.1-0.5-0.3-0.7
			c-0.1-0.2-0.3-0.4-0.5-0.6c-0.2-0.2-0.5-0.3-0.7-0.5c-0.3-0.1-0.6-0.2-0.8-0.2c-0.3,0-0.6,0-0.9,0.1c-0.3,0.1-0.5,0.2-0.8,0.4
			c-0.2,0.2-0.4,0.4-0.5,0.7c-0.1,0.2-0.1,0.5-0.1,0.7c0,0.2,0.1,0.5,0.2,0.7C153.5,160.6,153.7,160.8,153.9,161z"/>
		<path d="M162.8,157.7c-1.8-1.4-3.5-2.9-5.1-4.3c0.3-0.3,0.6-0.6,1-0.9c1.4,1.2,2.8,2.4,4.2,3.6c0.8-0.8,1.7-1.6,2.5-2.4
			c0.3,0.2,0.6,0.5,0.9,0.7C165.2,155.5,164,156.6,162.8,157.7z"/>
		<path d="M162.8,148.6c1.7,0.7,3.4,1.3,5.1,1.9c-0.9-1.5-1.8-2.9-2.6-4.4c0.3-0.3,0.6-0.6,0.9-1c1.1,2,2.2,4,3.4,6
			c-0.3,0.3-0.5,0.5-0.8,0.8c-2.4-0.7-4.7-1.5-7-2.3C162.2,149.2,162.5,148.9,162.8,148.6z"/>
		<path d="M175.2,143.1c0.3,0.2,0.6,0.4,0.9,0.6c-1,1.2-2,2.3-3,3.5c-1.8-1.3-3.5-2.6-5.2-4c1-1.1,2-2.2,2.9-3.3
			c0.3,0.2,0.6,0.5,0.9,0.7c-0.7,0.8-1.4,1.6-2.1,2.4c0.4,0.3,0.8,0.6,1.2,1c0.6-0.7,1.2-1.4,1.8-2.1c0.3,0.2,0.5,0.4,0.8,0.6
			c-0.6,0.7-1.2,1.4-1.8,2.1c0.5,0.3,0.9,0.7,1.4,1C173.8,144.7,174.5,143.9,175.2,143.1z"/>
		<path d="M176.3,135.8c-0.1,0-0.2,0-0.3,0.1c-0.1,0-0.3,0.1-0.4,0.2c-0.2,0.1-0.3,0.2-0.5,0.3c-0.2,0.1-0.3,0.3-0.4,0.4
			c-0.2,0.3-0.3,0.5-0.3,0.7c0,0.2,0.1,0.4,0.3,0.5c0.1,0.1,0.2,0.1,0.3,0.1c0.1,0,0.2,0,0.4-0.1c0.1-0.1,0.3-0.1,0.4-0.3
			c0.2-0.1,0.3-0.2,0.5-0.4c0.3-0.2,0.5-0.4,0.7-0.5c0.2-0.1,0.5-0.2,0.7-0.3c0.2-0.1,0.4-0.1,0.7,0c0.2,0,0.5,0.1,0.7,0.3
			c0.3,0.2,0.5,0.4,0.6,0.7c0.1,0.2,0.2,0.5,0.2,0.8c0,0.3-0.1,0.5-0.2,0.8c-0.1,0.3-0.3,0.5-0.5,0.8c-0.3,0.4-0.7,0.7-1.1,1
			c-0.4,0.3-0.8,0.5-1.3,0.6c-0.2-0.4-0.4-0.7-0.5-1.1c0.1,0,0.2,0,0.4-0.1c0.2-0.1,0.3-0.1,0.5-0.2c0.2-0.1,0.4-0.2,0.6-0.4
			c0.2-0.2,0.4-0.3,0.5-0.5c0.4-0.5,0.4-0.9,0.1-1.2c-0.1-0.1-0.2-0.1-0.4-0.1c-0.1,0-0.3,0-0.4,0.1c-0.1,0.1-0.3,0.2-0.5,0.3
			c-0.2,0.1-0.4,0.3-0.6,0.4c-0.3,0.2-0.5,0.3-0.7,0.5c-0.2,0.1-0.4,0.2-0.6,0.2c-0.2,0-0.4,0-0.6,0c-0.2,0-0.4-0.1-0.6-0.3
			c-0.3-0.2-0.5-0.4-0.6-0.7c-0.1-0.2-0.2-0.5-0.2-0.8c0-0.3,0.1-0.5,0.2-0.8c0.1-0.3,0.3-0.5,0.5-0.8c0.3-0.4,0.6-0.6,0.9-0.8
			c0.3-0.2,0.7-0.4,1-0.5C176,135.2,176.1,135.5,176.3,135.8z"/>
	</g>
</g>
</svg>
