<?xml version="1.0" encoding="utf-8"?>
<!-- Generator: Adobe Illustrator 16.0.0, SVG Export Plug-In . SVG Version: 6.00 Build 0)  -->
<!DOCTYPE svg PUBLIC "-//W3C//DTD SVG 1.1 Tiny//EN" "http://www.w3.org/Graphics/SVG/1.1/DTD/svg11-tiny.dtd">
<svg version="1.1" baseProfile="tiny" id="Capa_1" xmlns="http://www.w3.org/2000/svg" xmlns:xlink="http://www.w3.org/1999/xlink"
	 x="0px" y="0px" width="295.787px" height="39.063px" viewBox="0 0 295.787 39.063" xml:space="preserve">
<g>
	<text transform="matrix(1 0 0 1 0.2432 -27.2568)" fill="#FFFFFF" font-family="'Raleway-Regular'" font-size="19.1067">P</text>
	<text transform="matrix(1 0 0 1 9.9111 -27.2568)" fill="#FFFFFF" font-family="'Raleway-Regular'" font-size="19.1067">a</text>
	<text transform="matrix(1 0 0 1 19.1211 -27.2568)" fill="#FFFFFF" font-family="'Raleway-Regular'" font-size="19.1067">s</text>
	<text transform="matrix(1 0 0 1 26.6865 -27.2568)" fill="#FFFFFF" font-family="'Raleway-Regular'" font-size="19.1067">e</text>
	<text transform="matrix(1 0 0 1 36.2588 -27.2568)" fill="#FFFFFF" font-family="'Raleway-Regular'" font-size="19.1067">o</text>
	<text transform="matrix(1 0 0 1 46.749 -27.2568)" fill="#FFFFFF" font-family="'Raleway-Regular'" font-size="19.1067"> </text>
	<text transform="matrix(1 0 0 1 50.7988 -27.2568)" fill="#FFFFFF" font-family="'Raleway-Regular'" font-size="19.1067">d</text>
	<text transform="matrix(1 0 0 1 61.5752 -27.2568)" fill="#FFFFFF" font-family="'Raleway-Regular'" font-size="19.1067">e</text>
	<text transform="matrix(1 0 0 1 71.1475 -27.2568)" fill="#FFFFFF" font-family="'Raleway-Regular'" font-size="19.1067"> </text>
	<text transform="matrix(1 0 0 1 75.1973 -27.2568)" fill="#FFFFFF" font-family="'Raleway-Regular'" font-size="19.1067">R</text>
	<text transform="matrix(1 0 0 1 85.5537 -27.2568)" fill="#FFFFFF" font-family="'Raleway-Regular'" font-size="19.1067">e</text>
	<text transform="matrix(1 0 0 1 95.126 -27.2568)" fill="#FFFFFF" font-family="'Raleway-Regular'" font-size="19.1067">c</text>
	<text transform="matrix(1 0 0 1 103.5703 -27.2568)" fill="#FFFFFF" font-family="'Raleway-Regular'" font-size="19.1067">o</text>
	<text transform="matrix(1 0 0 1 114.0605 -27.2568)" fill="#FFFFFF" font-family="'Raleway-Regular'" font-size="19.1067">l</text>
	<text transform="matrix(1 0 0 1 118.5693 -27.2568)" fill="#FFFFFF" font-family="'Raleway-Regular'" font-size="19.1067">e</text>
	<text transform="matrix(1 0 0 1 128.1416 -27.2568)" fill="#FFFFFF" font-family="'Raleway-Regular'" font-size="19.1067">t</text>
	<text transform="matrix(1 0 0 1 134.3516 -27.2568)" fill="#FFFFFF" font-family="'Raleway-Regular'" font-size="19.1067">o</text>
	<text transform="matrix(1 0 0 1 144.8408 -27.2568)" fill="#FFFFFF" font-family="'Raleway-Regular'" font-size="19.1067">s</text>
	<text transform="matrix(1 0 0 1 152.1973 -27.2568)" fill="#FFFFFF" font-family="'Raleway-Regular'" font-size="19.1067">,</text>
	<text transform="matrix(1 0 0 1 156.1514 -27.2568)" fill="#FFFFFF" font-family="'Raleway-Regular'" font-size="19.1067"> </text>
	<text transform="matrix(1 0 0 1 160.2021 -27.2568)" fill="#FFFFFF" font-family="'Raleway-Regular'" font-size="19.1067">2</text>
	<text transform="matrix(1 0 0 1 170.0039 -27.2568)" fill="#FFFFFF" font-family="'Raleway-Regular'" font-size="19.1067">7</text>
	<text transform="matrix(1 0 0 1 179.8047 -27.2568)" fill="#FFFFFF" font-family="'Raleway-Regular'" font-size="19.1067"> </text>
	<text transform="matrix(1 0 0 1 183.8555 -27.2568)" fill="#FFFFFF" font-family="'Raleway-Regular'" font-size="19.1067">5</text>
	<text transform="matrix(1 0 0 1 193.6572 -27.2568)" fill="#FFFFFF" font-family="'Raleway-Regular'" font-size="19.1067">ยบ</text>
	<text transform="matrix(1 0 0 1 200.4395 -27.2568)" fill="#FFFFFF" font-family="'Raleway-Regular'" font-size="19.1067"> </text>
	<text transform="matrix(1 0 0 1 204.4902 -27.2568)" fill="#FFFFFF" font-family="'Raleway-Regular'" font-size="19.1067"> </text>
	<text transform="matrix(1 0 0 1 208.54 -27.2568)" fill="#FFFFFF" font-family="'Raleway-Regular'" font-size="19.1067">|</text>
	<text transform="matrix(1 0 0 1 213.1064 -27.2568)" fill="#FFFFFF" font-family="'Raleway-Regular'" font-size="19.1067"> </text>
	<text transform="matrix(1 0 0 1 217.1572 -27.2568)" fill="#FFFFFF" font-family="'Raleway-Regular'" font-size="19.1067"> </text>
	<text transform="matrix(1 0 0 1 221.208 -27.2568)" fill="#FFFFFF" font-family="'Raleway-Regular'" font-size="19.1067"> </text>
	<text transform="matrix(1 0 0 1 225.2578 -27.2568)" fill="#FFFFFF" font-family="'Raleway-Regular'" font-size="19.1067">2</text>
	<text transform="matrix(1 0 0 1 235.0596 -27.2568)" fill="#FFFFFF" font-family="'Raleway-Regular'" font-size="19.1067">8</text>
	<text transform="matrix(1 0 0 1 244.8613 -27.2568)" fill="#FFFFFF" font-family="'Raleway-Regular'" font-size="19.1067">0</text>
	<text transform="matrix(1 0 0 1 254.6621 -27.2568)" fill="#FFFFFF" font-family="'Raleway-Regular'" font-size="19.1067">0</text>
	<text transform="matrix(1 0 0 1 264.4639 -27.2568)" fill="#FFFFFF" font-family="'Raleway-Regular'" font-size="19.1067">4</text>
	<text transform="matrix(1 0 0 1 274.2656 -27.2568)" fill="#FFFFFF" font-family="'Raleway-Regular'" font-size="19.1067"> </text>
	<text transform="matrix(1 0 0 1 278.3154 -27.2568)" fill="#FFFFFF" font-family="'Raleway-Regular'" font-size="19.1067">M</text>
	<text transform="matrix(1 0 0 1 293.4863 -27.2568)" fill="#FFFFFF" font-family="'Raleway-Regular'" font-size="19.1067">A</text>
	<text transform="matrix(1 0 0 1 305.1797 -27.2568)" fill="#FFFFFF" font-family="'Raleway-Regular'" font-size="19.1067">D</text>
	<text transform="matrix(1 0 0 1 317.9043 -27.2568)" fill="#FFFFFF" font-family="'Raleway-Regular'" font-size="19.1067">R</text>
	<text transform="matrix(1 0 0 1 328.1836 -27.2568)" fill="#FFFFFF" font-family="'Raleway-Regular'" font-size="19.1067">I</text>
	<text transform="matrix(1 0 0 1 332.75 -27.2568)" fill="#FFFFFF" font-family="'Raleway-Regular'" font-size="19.1067">D</text>
	<text transform="matrix(1 0 0 1 345.4746 -27.2568)" fill="#FFFFFF" font-family="'Raleway-Regular'" font-size="19.1067"> </text>
	<text transform="matrix(1 0 0 1 349.5254 -27.2568)" fill="#FFFFFF" font-family="'Raleway-Regular'" font-size="19.1067"> </text>
	<text transform="matrix(1 0 0 1 353.5752 -27.2568)" fill="#FFFFFF" font-family="'Raleway-Regular'" font-size="19.1067">|</text>
	<text transform="matrix(1 0 0 1 358.1416 -27.2568)" fill="#FFFFFF" font-family="'Raleway-Regular'" font-size="19.1067"> </text>
	<text transform="matrix(1 0 0 1 362.1924 -27.2568)" fill="#FFFFFF" font-family="'Raleway-Regular'" font-size="19.1067"> </text>
	<text transform="matrix(1 0 0 1 366.2422 -27.2568)" fill="#FFFFFF" font-family="'Raleway-Regular'" font-size="19.1067">S</text>
	<text transform="matrix(1 0 0 1 375.6621 -27.2568)" fill="#FFFFFF" font-family="'Raleway-Regular'" font-size="19.1067">P</text>
	<text transform="matrix(1 0 0 1 384.2217 -27.2568)" fill="#FFFFFF" font-family="'Raleway-Regular'" font-size="19.1067">A</text>
	<text transform="matrix(1 0 0 1 395.915 -27.2568)" fill="#FFFFFF" font-family="'Raleway-Regular'" font-size="19.1067">I</text>
	<text transform="matrix(1 0 0 1 400.4814 -27.2568)" fill="#FFFFFF" font-family="'Raleway-Regular'" font-size="19.1067">N</text>
	<text transform="matrix(1 0 0 1 0.2432 -60.2568)" fill="#FFFFFF" font-family="'Raleway-Regular'" font-size="19.1067">M</text>
	<text transform="matrix(1 0 0 1 15.4141 -60.2568)" fill="#FFFFFF" font-family="'Raleway-Regular'" font-size="19.1067">A</text>
	<text transform="matrix(1 0 0 1 27.1074 -60.2568)" fill="#FFFFFF" font-family="'Raleway-Regular'" font-size="19.1067">D</text>
	<text transform="matrix(1 0 0 1 39.832 -60.2568)" fill="#FFFFFF" font-family="'Raleway-Regular'" font-size="19.1067">R</text>
	<text transform="matrix(1 0 0 1 50.1113 -60.2568)" fill="#FFFFFF" font-family="'Raleway-Regular'" font-size="19.1067">I</text>
	<text transform="matrix(1 0 0 1 54.6777 -60.2568)" fill="#FFFFFF" font-family="'Raleway-Regular'" font-size="19.1067">D</text>
	<text transform="matrix(1 0 0 1 67.4023 -60.2568)" fill="#FFFFFF" font-family="'Raleway-Regular'" font-size="19.1067"> </text>
	<text transform="matrix(1 0 0 1 71.4521 -60.2568)" fill="#FFFFFF" font-family="'Raleway-Regular'" font-size="19.1067">O</text>
	<text transform="matrix(1 0 0 1 84.6172 -60.2568)" fill="#FFFFFF" font-family="'Raleway-Regular'" font-size="19.1067">F</text>
	<text transform="matrix(1 0 0 1 93.9219 -60.2568)" fill="#FFFFFF" font-family="'Raleway-Regular'" font-size="19.1067">F</text>
	<text transform="matrix(1 0 0 1 103.2266 -60.2568)" fill="#FFFFFF" font-family="'Raleway-Regular'" font-size="19.1067">I</text>
	<text transform="matrix(1 0 0 1 107.793 -60.2568)" fill="#FFFFFF" font-family="'Raleway-Regular'" font-size="19.1067">C</text>
	<text transform="matrix(1 0 0 1 118.875 -60.2568)" fill="#FFFFFF" font-family="'Raleway-Regular'" font-size="19.1067">E</text>
	<g>
		<path fill="#FFFFFF" d="M81.271,22.743V11.692c0,0,0.659-8.184-9.035-8.105H62.62c0,0-8.569-0.658-9.073,7.756v11.129
			c-0.039,8.764,7.639,8.84,7.639,8.84s0,0,10.547,0.078S81.271,22.743,81.271,22.743z M78.828,22.743
			c-0.039,6.939-7.057,6.088-7.057,6.088s-4.344,0.039-10.043,0c-5.701-0.039-5.623-5.701-5.623-5.701V11.342
			c0,0-0.078-5.158,6.592-5.234c6.514-0.076,4.633-0.078,4.541-0.078h5.037c0,0,6.536-0.426,6.553,5.623
			C78.828,11.653,78.867,15.801,78.828,22.743z"/>
		<path id="XMLID_711_" fill="#FFFFFF" d="M67.455,13.389c2.25,0,4.08,1.829,4.08,4.078c0,2.25-1.83,4.08-4.08,4.08
			c-2.248,0-4.078-1.83-4.078-4.08C63.377,15.218,65.207,13.389,67.455,13.389 M67.455,10.389c-3.909,0-7.078,3.17-7.078,7.078
			c0,3.91,3.169,7.08,7.078,7.08c3.91,0,7.08-3.17,7.08-7.08C74.535,13.559,71.365,10.389,67.455,10.389L67.455,10.389z"/>
		<circle id="XMLID_710_" fill="#FFFFFF" cx="74.877" cy="10.079" r="1.848"/>
	</g>
	<path id="XMLID_998_" fill="#FFFFFF" d="M130.785,6.114v4.764h11.557c0,0,2.279,0.414,2.154,3.023
		c-0.124,2.611-1.076,3.025-1.947,3.273h-11.764v3.77c0,0-0.373,3.355,4.681,3.355s6.504,0,6.504,0s2.785,0.373,2.532,3.314
		c-0.254,2.941-1.649,3.199-2.313,3.375h-9.552c0,0-8.619,0.738-8.547-10.568s0-14.307,0-14.307s0.769-2.277,3.256-2.172
		C129.834,4.045,130.637,5.301,130.785,6.114z"/>
	<path id="XMLID_1012_" fill="#FFFFFF" d="M16.176,12.081l-0.702,5.621h-4.826l0.022,14.457H4.85V17.698H0v-5.617h4.85V7.772
		c0,0-0.883-9.137,11.539-7.02v5.049H13.23c0,0-2.598-0.232-2.641,3.021l0.024,3.256L16.176,12.081z"/>
	<g>
		<path id="XMLID_1080_" fill="#FFFFFF" d="M203.822,22.008c-0.191-0.27-0.383-0.514-0.547-0.773
			c-0.563-0.898-0.65-1.838-0.209-2.812c0.021-0.047,0.035-0.098,0.059-0.164c-0.209,0.018-0.405,0.037-0.602,0.049
			c-1.723,0.104-3.287-0.299-4.584-1.49c-0.973-0.893-1.559-2.006-1.713-3.318c-0.247-2.1,0.508-3.844,2.013-5.275
			c0.96-0.912,2.144-1.447,3.404-1.811c1.134-0.328,2.292-0.479,3.472-0.479c2.246,0,4.492,0,6.738,0c0.041,0,0.083,0,0.157,0
			c-0.045,0.041-0.065,0.068-0.092,0.084c-0.695,0.438-1.39,0.877-2.088,1.309c-0.066,0.041-0.155,0.062-0.233,0.062
			c-0.66,0.006-1.319,0.004-2.016,0.004c0.071,0.061,0.119,0.104,0.168,0.145c0.661,0.559,1.242,1.184,1.654,1.953
			c0.576,1.076,0.746,2.221,0.605,3.422c-0.16,1.383-0.854,2.473-1.87,3.381c-0.444,0.396-0.906,0.775-1.343,1.182
			c-0.301,0.281-0.539,0.617-0.633,1.029c-0.156,0.68,0.089,1.227,0.604,1.66c0.4,0.336,0.818,0.652,1.228,0.979
			c0.721,0.574,1.438,1.156,2.032,1.867c1.408,1.689,1.581,3.561,0.729,5.537c-0.585,1.357-1.621,2.322-2.884,3.053
			c-1.224,0.707-2.553,1.09-3.946,1.273c-1.104,0.145-2.212,0.166-3.321,0.061c-1.319-0.127-2.59-0.432-3.748-1.104
			c-0.928-0.539-1.675-1.258-2.105-2.256c-0.521-1.205-0.438-2.4,0.121-3.568c0.507-1.061,1.328-1.826,2.329-2.416
			c1.13-0.666,2.36-1.047,3.646-1.246c0.943-0.146,1.9-0.219,2.852-0.324C203.734,22.016,203.77,22.014,203.822,22.008z
			 M203.795,31.504c0.207-0.014,0.563-0.023,0.917-0.061c0.866-0.088,1.697-0.301,2.454-0.752c1.707-1.02,1.984-2.84,1.516-4.139
			c-0.201-0.561-0.566-1.01-0.985-1.42c-0.794-0.775-1.706-1.398-2.603-2.045c-0.046-0.033-0.115-0.043-0.176-0.047
			c-1.141-0.068-2.268,0.057-3.384,0.281c-0.891,0.178-1.729,0.486-2.483,1.006c-1.734,1.193-1.87,3.287-1.021,4.711
			c0.498,0.836,1.243,1.387,2.116,1.779C201.259,31.317,202.438,31.487,203.795,31.504z M199.286,11.04
			c0.023,1.273,0.312,2.486,0.858,3.635c0.328,0.688,0.754,1.305,1.334,1.807c1.567,1.357,3.6,0.908,4.686-0.256
			c0.531-0.57,0.721-1.289,0.764-2.047c0.07-1.281-0.189-2.506-0.666-3.689c-0.328-0.814-0.762-1.562-1.396-2.178
			c-0.791-0.77-1.723-1.168-2.838-0.975c-1.031,0.18-1.835,0.709-2.318,1.662C199.384,9.639,199.295,10.333,199.286,11.04z"/>
		<path id="XMLID_1079_" fill="#FFFFFF" d="M217.19,13.743c0,1.18,0,2.34,0,3.52c1.181,0,2.351,0,3.533,0c0,0.598,0,1.176,0,1.777
			c-1.171,0-2.345,0-3.532,0c0,1.193,0,2.363,0,3.547c-0.064,0.004-0.115,0.008-0.166,0.008c-0.477,0.002-0.953-0.004-1.43,0.004
			c-0.143,0.004-0.173-0.043-0.172-0.178c0.005-1.057,0.003-2.115,0.003-3.172c0-0.062,0-0.123,0-0.199c-1.175,0-2.335,0-3.508,0
			c0-0.598,0-1.18,0-1.781c1.165,0,2.329,0,3.508,0c0-0.082,0-0.145,0-0.205c0-1.053,0.003-2.105-0.003-3.158
			c-0.002-0.141,0.041-0.176,0.177-0.174c0.472,0.008,0.942,0.004,1.413,0.004C217.065,13.735,217.117,13.739,217.19,13.743z"/>
	</g>
	<path id="XMLID_577_" fill="#FFFFFF" d="M275.778,23.493c-0.173,0.68-0.337,1.348-0.513,2.014c-0.227,0.861-0.431,1.732-0.701,2.58
		c-0.341,1.068-0.896,2.039-1.516,2.971c-0.316,0.477-0.661,0.934-0.998,1.396c-0.039,0.055-0.102,0.107-0.164,0.127
		c-0.143,0.041-0.24-0.047-0.264-0.225c-0.045-0.338-0.1-0.674-0.124-1.014c-0.044-0.604-0.088-1.209-0.101-1.814
		c-0.023-1.215,0.16-2.402,0.448-3.584c0.58-2.377,1.127-4.762,1.696-7.141c0.049-0.209,0.037-0.387-0.035-0.592
		c-0.461-1.307-0.533-2.625-0.047-3.941c0.255-0.691,0.662-1.277,1.289-1.688c0.555-0.361,1.163-0.482,1.811-0.34
		c0.818,0.182,1.266,0.734,1.457,1.521c0.148,0.609,0.089,1.219-0.065,1.812c-0.247,0.947-0.535,1.885-0.799,2.828
		c-0.149,0.533-0.321,1.064-0.419,1.609c-0.212,1.174,0.49,2.256,1.644,2.574c0.917,0.252,1.769,0.064,2.557-0.439
		c0.705-0.449,1.216-1.082,1.63-1.799c0.566-0.98,0.902-2.043,1.107-3.15c0.17-0.916,0.254-1.844,0.218-2.775
		c-0.052-1.326-0.442-2.531-1.329-3.545c-0.779-0.893-1.772-1.439-2.916-1.705c-1.819-0.426-3.609-0.33-5.317,0.463
		c-2.097,0.973-3.38,2.629-3.911,4.867c-0.213,0.896-0.257,1.807-0.082,2.719c0.129,0.67,0.406,1.271,0.838,1.801
		c0.053,0.064,0.105,0.131,0.159,0.195c0.157,0.189,0.196,0.402,0.134,0.639c-0.11,0.424-0.213,0.848-0.324,1.271
		c-0.104,0.402-0.405,0.553-0.793,0.393c-0.995-0.41-1.717-1.121-2.23-2.055c-0.396-0.725-0.625-1.506-0.744-2.318
		c-0.111-0.758-0.138-1.518-0.049-2.279c0.117-1.002,0.395-1.963,0.845-2.865c1.331-2.668,3.481-4.348,6.316-5.182
		c0.981-0.289,1.988-0.424,3.011-0.467c1.342-0.057,2.656,0.086,3.932,0.514c2.367,0.797,4.178,2.264,5.316,4.508
		c0.625,1.232,0.893,2.547,0.855,3.93c-0.041,1.547-0.283,3.055-0.836,4.506c-0.488,1.281-1.18,2.438-2.165,3.402
		c-1.169,1.145-2.559,1.838-4.187,2.045c-0.93,0.117-1.84,0.074-2.718-0.281c-0.765-0.311-1.433-0.744-1.882-1.461
		C275.809,23.51,275.8,23.508,275.778,23.493z"/>
</g>
</svg>
