<?xml version="1.0" encoding="utf-8"?>
<!-- Generator: Adobe Illustrator 16.0.0, SVG Export Plug-In . SVG Version: 6.00 Build 0)  -->
<!DOCTYPE svg PUBLIC "-//W3C//DTD SVG 1.1//EN" "http://www.w3.org/Graphics/SVG/1.1/DTD/svg11.dtd">
<svg version="1.1" id="Capa_1" xmlns="http://www.w3.org/2000/svg" xmlns:xlink="http://www.w3.org/1999/xlink" x="0px" y="0px"
	 width="91.25px" height="36.433px" viewBox="0 0 91.25 36.433" enable-background="new 0 0 91.25 36.433" xml:space="preserve">
<g>
	<defs>
		<path id="SVGID_1_" d="M0.636,15.675h0.003l-0.003,0.006V15.675z M11.424,22.449l7.2-12.798l7.393,12.808L11.424,22.449z
			 M18.463,0.001c-0.056,0.001-0.112,0-0.169,0.002c-0.23,0.004-0.46,0.015-0.689,0.027c-0.115,0.008-0.23,0.015-0.344,0.023
			c-0.138,0.012-0.275,0.024-0.413,0.038c-0.207,0.021-0.412,0.045-0.618,0.073c-0.081,0.009-0.162,0.021-0.243,0.033
			c-0.269,0.041-0.537,0.087-0.805,0.139c-0.054,0.011-0.108,0.021-0.162,0.031C14.865,0.4,14.71,0.434,14.557,0.47
			c-0.076,0.019-0.152,0.036-0.226,0.056c-0.228,0.055-0.454,0.115-0.68,0.18c-0.055,0.016-0.109,0.032-0.164,0.048
			C6.842,2.729,1.624,8.428,0.625,15.746c-0.005,0.031-0.009,0.062-0.012,0.093c-0.394,2.97-0.059,6.079,1.119,9.063
			c0.23,0.582,0.486,1.146,0.768,1.69c0.003,0.006,0.006,0.014,0.01,0.02c0.129,0.25,0.265,0.496,0.404,0.736
			c0.027,0.048,0.055,0.095,0.083,0.141c0.102,0.174,0.21,0.346,0.318,0.517c0.064,0.101,0.128,0.2,0.193,0.299
			c0.103,0.154,0.208,0.307,0.314,0.456c0.096,0.133,0.193,0.267,0.291,0.396c0.025,0.034,0.05,0.066,0.076,0.1
			c0.191,0.25,0.387,0.496,0.592,0.736c0.014,0.016,0.029,0.034,0.044,0.051c0.335,0.395,0.684,0.77,1.049,1.13
			c0.037,0.037,0.076,0.073,0.114,0.11c0.1,0.098,0.2,0.193,0.303,0.29l0.002-0.005c4.977,4.607,12.334,6.244,19.065,3.589
			c0.053-0.021,0.103-0.044,0.155-0.065l-0.007,0.001c-0.002,0-0.004,0.001-0.005,0.003L25.5,35.094h0.006l0.007-0.001
			c2.794-1.128,5.343-2.968,7.361-5.48c0.022-0.028,0.045-0.055,0.067-0.081c0.037-0.047,0.072-0.096,0.108-0.143
			c-0.008,0.012-0.017,0.022-0.025,0.032c0.544-0.696,1.031-1.419,1.458-2.165c0.014-0.023,0.028-0.048,0.042-0.073
			c0.134-0.235,0.264-0.476,0.386-0.718c0.029-0.056,0.055-0.113,0.084-0.17c0.082-0.167,0.163-0.336,0.241-0.506
			c0.043-0.098,0.088-0.194,0.131-0.293c0.079-0.179,0.153-0.361,0.227-0.544c0.048-0.12,0.095-0.242,0.141-0.363
			c0.046-0.127,0.091-0.254,0.135-0.38c0.062-0.176,0.119-0.35,0.176-0.527c0.037-0.118,0.074-0.238,0.109-0.357
			c0.034-0.119,0.069-0.237,0.101-0.356c0.045-0.166,0.088-0.333,0.129-0.502h-0.003c1.6-6.674-0.657-13.975-6.389-18.521
			c-0.091-0.073-0.183-0.144-0.276-0.214l-0.001,0.003l-0.004-0.006l-0.002-0.001c-0.018-0.017-0.038-0.03-0.058-0.045
			c-0.099-0.076-0.2-0.15-0.302-0.225c-0.056-0.04-0.111-0.08-0.167-0.119c-0.099-0.07-0.199-0.14-0.301-0.208
			c-0.056-0.038-0.112-0.077-0.167-0.113c-0.109-0.071-0.217-0.141-0.326-0.21c-0.048-0.03-0.097-0.062-0.146-0.092
			c-0.122-0.076-0.248-0.15-0.374-0.225c-0.033-0.021-0.066-0.039-0.1-0.059c-0.148-0.086-0.297-0.17-0.447-0.251
			c-0.011-0.006-0.023-0.012-0.034-0.018c-1.863-1.001-3.934-1.692-6.152-1.995C20.296,0.053,19.463,0,18.64,0
			C18.581,0,18.522,0,18.463,0.001"/>
	</defs>
	<clipPath id="SVGID_2_">
		<use xlink:href="#SVGID_1_"  overflow="visible"/>
	</clipPath>
	
		<linearGradient id="SVGID_3_" gradientUnits="userSpaceOnUse" x1="-459.8257" y1="559.6133" x2="-458.8254" y2="559.6133" gradientTransform="matrix(-14.931 -28.3474 -28.3474 14.931 9023.1875 -21359.7344)">
		<stop  offset="0" style="stop-color:#FFFFFF"/>
		<stop  offset="1" style="stop-color:#D0D2D3"/>
	</linearGradient>
	<polygon clip-path="url(#SVGID_2_)" fill="url(#SVGID_3_)" points="8.42,53.383 -15.373,8.212 29.78,-15.57 53.572,29.601 	"/>
</g>
<g>
	<defs>
		<path id="SVGID_4_" d="M29.709,3.727l0.002,0.001C29.71,3.727,29.709,3.727,29.709,3.727S29.709,3.727,29.709,3.727 M18.463,0.001
			c-0.056,0.001-0.112,0-0.169,0.002c-0.23,0.004-0.46,0.015-0.689,0.027c-0.115,0.008-0.23,0.015-0.344,0.023
			c-0.138,0.012-0.275,0.024-0.413,0.038c-0.207,0.021-0.412,0.045-0.618,0.073c-0.081,0.009-0.162,0.021-0.243,0.033
			c-0.269,0.041-0.537,0.087-0.805,0.139c-0.054,0.011-0.108,0.021-0.162,0.031C14.865,0.4,14.71,0.434,14.557,0.47
			c-0.076,0.019-0.152,0.036-0.226,0.056c-0.228,0.055-0.454,0.115-0.68,0.18c-0.055,0.016-0.109,0.032-0.164,0.048
			C6.842,2.729,1.624,8.428,0.625,15.746c-0.014,0.097-0.023,0.195-0.035,0.293c0.014-0.117,0.028-0.234,0.043-0.351l0.003-0.008
			v-0.003l0.003-0.003l-0.003,0.006c0.001,3.734,3.027,6.762,6.761,6.765l4.027,0.004l7.2-12.798l1.879-3.341
			c1.831-3.255,5.951-4.409,9.206-2.585c-0.018-0.016-0.038-0.029-0.058-0.044c-0.099-0.076-0.2-0.15-0.302-0.225
			c-0.056-0.04-0.111-0.08-0.167-0.119c-0.099-0.07-0.199-0.14-0.301-0.208c-0.056-0.038-0.112-0.077-0.167-0.113
			c-0.109-0.071-0.217-0.141-0.326-0.21c-0.048-0.03-0.097-0.062-0.146-0.092c-0.122-0.076-0.248-0.15-0.374-0.225
			c-0.033-0.021-0.066-0.039-0.1-0.059c-0.148-0.086-0.297-0.17-0.447-0.251c-0.011-0.006-0.023-0.012-0.034-0.018
			c-1.863-1.001-3.934-1.692-6.152-1.995C20.296,0.053,19.463,0,18.64,0C18.581,0,18.522,0,18.463,0.001"/>
	</defs>
	<clipPath id="SVGID_5_">
		<use xlink:href="#SVGID_4_"  overflow="visible"/>
	</clipPath>
	
		<linearGradient id="SVGID_6_" gradientUnits="userSpaceOnUse" x1="-488.2012" y1="531.5977" x2="-487.2012" y2="531.5977" gradientTransform="matrix(-13.3702 23.0939 23.0939 13.3702 -18782.5312 4167.3125)">
		<stop  offset="0" style="stop-color:#FFFFFF"/>
		<stop  offset="1" style="stop-color:#D0D2D3"/>
	</linearGradient>
	<polygon clip-path="url(#SVGID_5_)" fill="url(#SVGID_6_)" points="39.445,5.636 22.4,35.076 -9.144,16.813 7.9,-12.627 	"/>
</g>
<g>
	<defs>
		<path id="SVGID_7_" d="M0.633,15.688c-0.425,3.015-0.099,6.179,1.099,9.214c0.23,0.582,0.486,1.146,0.768,1.69
			c0.003,0.006,0.006,0.014,0.01,0.02c0.129,0.25,0.265,0.496,0.404,0.736c0.027,0.048,0.055,0.095,0.083,0.141
			c0.102,0.174,0.21,0.346,0.318,0.517c0.064,0.101,0.128,0.2,0.193,0.299c0.103,0.154,0.208,0.307,0.314,0.456
			c0.096,0.133,0.193,0.267,0.291,0.396c0.025,0.034,0.05,0.066,0.076,0.1c0.191,0.25,0.387,0.496,0.592,0.736
			c0.014,0.016,0.029,0.034,0.044,0.051c0.335,0.395,0.684,0.77,1.049,1.13c0.037,0.037,0.076,0.073,0.114,0.11
			c0.1,0.098,0.2,0.193,0.303,0.29l0.002-0.005c4.977,4.607,12.334,6.244,19.065,3.589c0.053-0.021,0.103-0.044,0.155-0.065
			l-0.007,0.001c-0.002,0-0.004,0.001-0.005,0.003L25.5,35.094h0.006c3.232-1.87,4.339-6.004,2.471-9.237l-1.96-3.397l-14.593-0.01
			l-4.027-0.004c-3.734-0.003-6.76-3.03-6.761-6.765L0.633,15.688z"/>
	</defs>
	<clipPath id="SVGID_8_">
		<use xlink:href="#SVGID_7_"  overflow="visible"/>
	</clipPath>
	
		<linearGradient id="SVGID_9_" gradientUnits="userSpaceOnUse" x1="-495.2251" y1="572.4883" x2="-494.2246" y2="572.4883" gradientTransform="matrix(28.5749 0.172 0.172 -28.5749 14054.2656 16470.6719)">
		<stop  offset="0" style="stop-color:#FFFFFF"/>
		<stop  offset="1" style="stop-color:#D0D2D3"/>
	</linearGradient>
	<polygon clip-path="url(#SVGID_8_)" fill="url(#SVGID_9_)" points="0.209,15.503 29.978,15.682 29.844,37.991 0.075,37.812 	"/>
</g>
<g>
	<defs>
		<path id="SVGID_10_" d="M32.874,29.612c0.022-0.028,0.045-0.055,0.067-0.081c0.037-0.047,0.072-0.096,0.108-0.143
			C32.991,29.464,32.933,29.538,32.874,29.612"/>
	</defs>
	<clipPath id="SVGID_11_">
		<use xlink:href="#SVGID_10_"  overflow="visible"/>
	</clipPath>
	
		<linearGradient id="SVGID_12_" gradientUnits="userSpaceOnUse" x1="-495.1357" y1="572.5059" x2="-494.2127" y2="572.5059" gradientTransform="matrix(28.584 0.1721 0.1721 -28.584 14058.5625 16479.0312)">
		<stop  offset="0" style="stop-color:#FFFFFF"/>
		<stop  offset="1" style="stop-color:#D0D2D3"/>
	</linearGradient>
	<rect x="32.873" y="29.388" clip-path="url(#SVGID_11_)" fill="url(#SVGID_12_)" width="0.176" height="0.225"/>
</g>
<g>
	<defs>
		<path id="SVGID_13_" d="M20.503,6.311l-1.879,3.341l7.393,12.808l1.96,3.397c1.868,3.233,0.761,7.367-2.471,9.237l0.007-0.001
			c2.824-1.141,5.399-3.007,7.428-5.562c0.578-0.73,1.091-1.491,1.541-2.275c0.014-0.023,0.028-0.048,0.042-0.073
			c0.134-0.235,0.264-0.476,0.386-0.718c0.029-0.056,0.055-0.113,0.084-0.17c0.082-0.167,0.163-0.336,0.241-0.506
			c0.043-0.098,0.088-0.194,0.131-0.293c0.079-0.179,0.153-0.361,0.227-0.544c0.048-0.12,0.095-0.242,0.141-0.363
			c0.046-0.127,0.091-0.254,0.135-0.38c0.062-0.176,0.119-0.35,0.176-0.527c0.037-0.118,0.074-0.238,0.109-0.357
			c0.034-0.119,0.069-0.237,0.101-0.356c0.045-0.166,0.088-0.333,0.129-0.502h-0.003c1.6-6.674-0.657-13.975-6.389-18.521
			c-0.091-0.073-0.183-0.144-0.276-0.214l-0.001,0.003l-0.004-0.006c-1.047-0.588-2.184-0.866-3.305-0.866
			C24.041,2.861,21.745,4.102,20.503,6.311"/>
	</defs>
	<clipPath id="SVGID_14_">
		<use xlink:href="#SVGID_13_"  overflow="visible"/>
	</clipPath>
	
		<linearGradient id="SVGID_15_" gradientUnits="userSpaceOnUse" x1="-454.6387" y1="560.8027" x2="-453.639" y2="560.8027" gradientTransform="matrix(-11.8775 -22.5501 -22.5501 11.8775 7279.0625 -16885.4375)">
		<stop  offset="0" style="stop-color:#FFFFFF"/>
		<stop  offset="1" style="stop-color:#D0D2D3"/>
	</linearGradient>
	<polygon clip-path="url(#SVGID_14_)" fill="url(#SVGID_15_)" points="22.828,43.075 5.333,9.861 33.777,-5.12 51.271,28.094 	"/>
</g>
<text transform="matrix(1 0 0 1 43.3242 22.1387)"><tspan x="0" y="0" fill="#D1D3D4" font-family="'Break-Bold'" font-size="11.9149" letter-spacing="3">A</tspan><tspan x="10.342" y="0" fill="#D1D3D4" font-family="'Break-Bold'" font-size="11.9149" letter-spacing="3">L</tspan><tspan x="19.004" y="0" fill="#D1D3D4" font-family="'Break-Bold'" font-size="11.9149" letter-spacing="3">QU</tspan><tspan x="41.022" y="0" fill="#D1D3D4" font-family="'Break-Bold'" font-size="11.9149">A</tspan></text>
<line fill="none" x1="1009.966" y1="52" x2="-912.034" y2="52"/>
<line fill="none" x1="-912.034" y1="52" x2="1009.966" y2="52"/>
</svg>
